<?xml version="1.0" encoding="UTF-8" standalone="no"?>
<!-- Created with Inkscape (http://www.inkscape.org/) -->

<svg
   width="210mm"
   height="297mm"
   viewBox="0 0 210 297"
   version="1.1"
   id="svg152"
   inkscape:version="1.1.2 (0a00cf5339, 2022-02-04)"
   sodipodi:docname="first_logo_approach.svg"
   xmlns:inkscape="http://www.inkscape.org/namespaces/inkscape"
   xmlns:sodipodi="http://sodipodi.sourceforge.net/DTD/sodipodi-0.dtd"
   xmlns="http://www.w3.org/2000/svg"
   xmlns:svg="http://www.w3.org/2000/svg">
  <sodipodi:namedview
     id="namedview154"
     pagecolor="#505050"
     bordercolor="#eeeeee"
     borderopacity="1"
     inkscape:pageshadow="0"
     inkscape:pageopacity="0"
     inkscape:pagecheckerboard="0"
     inkscape:document-units="mm"
     showgrid="false"
     inkscape:zoom="0.75187991"
     inkscape:cx="397.00489"
     inkscape:cy="561.92484"
     inkscape:window-width="1920"
     inkscape:window-height="1016"
     inkscape:window-x="2560"
     inkscape:window-y="1107"
     inkscape:window-maximized="1"
     inkscape:current-layer="layer1" />
  <defs
     id="defs149" />
  <g
     inkscape:label="Laag 1"
     inkscape:groupmode="layer"
     id="layer1">
    <path
       id="path48"
       style="stroke-width:1.05805"
       d="m 92.578398,97.573357 c 0,0 -1.278417,2.257578 8.108552,0.882118 0,0 5.31552,0.399936 5.8477,3.456635 0,0 1.06336,1.59568 0.26562,4.38681 0,0 -4.85854,-4.69358 -19.937801,-3.98787 0,0 -7.576783,-1.19652 -4.386813,-2.525425 0,0 -8.37412,1.196335 1.993678,4.651915 0,0 8.915964,-0.6644 13.164053,0.39894 0,0 5.844883,2.3e-4 4.116023,8.24136 0,0 -3.634111,5.05 -3.610111,6.24665 0,0 -4.365434,-4.51909 -3.302124,-7.84242 0,0 1.991905,-5.58227 4.119647,-3.4556 0,0 -2.658724,-4.5198 -5.715415,4.5191 0,0 -6.259431,-0.52045 -9.9689,-6.11435 -3.709519,-5.59389 -9.172387,-2.12678 -11.299052,-0.53124 0,0 6.114566,-4.11975 10.766785,1.86139 4.448466,5.71918 -15.855622,0.23116 -13.612606,-2.83859 -1.101876,1.18601 -2.666429,4.72076 15.075048,6.69261 0,0 9.968989,1.99472 10.234517,11.83029 0.265562,9.8356 -0.132318,4.51879 -3.854543,9.17102 0,0 -1.196617,-1.06346 -6.513298,-0.79789 -5.31668,0.26557 0.530903,-11.03291 1.727542,-10.89959 0,0 4.120327,-2.65792 4.253489,-0.66456 0,0 2.126527,-4.78575 -7.709091,1.99316 0,0 -5.715582,8.24213 -3.323312,9.83661 0,0 -7.30995,-3.58886 -5.98103,-6.5133 0,0 3.056895,-3.58875 4.519104,-2.3921 0,0 0.652111,-0.43188 0.874366,0.17673 -0.188357,-0.66679 -1.081879,-2.58849 -4.994529,-0.57567 0,0 -0.531402,-5.58219 1.86087,-6.24665 0,0 7.710093,-3.72205 10.766785,0.93018 0,0 0.397843,-6.51357 -13.292211,-1.46245 0,0 -4.785517,5.05014 -3.189986,10.50014 -3e-6,0 -4.386665,-4.91809 -3.189989,-8.50698 0,0 4.088323,-5.49618 6.778916,-4.25297 0,0 -5.184198,-2.52583 -8.77311,4.91753 0,0 0.411322,-4.21605 -1.728057,-4.91753 0,0 -2.075,-0.90476 -3.225128,0.6749 l -1.1498,1.57975 c 0,0 6.102689,-6.24237 4.10931,4.78989 0,0 -0.133035,2.39193 1.72806,4.65191 0,0 -4.918067,-1.0632 -8.640299,4.25348 0,0 -3.326286,8.81326 -5.45083,8.06204 0,0 0.13434,4.56701 6.647657,-6.59856 0,0 6.778855,-8.10935 13.292211,0.13178 0,0 -9.96905,11.16593 -10.899076,2.39261 0,0 -2.392082,9.703 11.0324,1.06299 0,0 11.696472,0.26585 15.285373,1.86138 3.588869,1.59554 -5.223547,5.50686 -7.471897,6.30039 0,0 -9.654397,-0.92551 -9.853144,-2.84375 0,0 -1.520793,2.11608 8.266163,3.7698 0,0 -7.207555,3.30639 -10.051585,1.91822 0,0 -0.463105,-2.3806 -4.695319,-3.83542 -4.232175,-1.45482 -2.777638,3.17497 -6.745325,1.12448 0,0 2.381068,3.10748 5.489588,0 -2e-6,0 2.711617,0.0604 3.306258,2.4474 0.594598,2.388 -8.861155,-2.04939 -9.58908,0.19895 0,0 -4.828085,3.37177 -2.711979,-4.69584 0,0 -3.570925,6.08297 1.851568,6.67866 0,0 1.389313,-1.12503 2.315104,-1.05833 0,0 3.373244,3.17415 0.661458,3.90209 0,0 -2.71177,-1.7188 -3.902088,0.0672 0,0 -1.11842,1.64021 -0.326594,2.71146 h 1.712555 c -0.174609,-0.27688 -0.406646,-0.56992 -0.725019,-0.88212 0,0 -0.748712,-3.13098 3.351215,-0.88263 0,0 3.130429,1.63266 3.21841,-1.4981 h -5.18e-4 c 0.05425,-1.93334 -1.060932,-2.83563 -1.416968,-3.05924 -0.113678,-0.0606 -0.116139,-0.073 0,0 0.101973,0.0543 0.28171,0.14007 0.671277,0.2837 0,0 14.089816,3.0577 25.787574,-3.85558 0,0 7.575857,-7.31071 8.241358,-0.79737 0.46387,4.55525 -7.583757,5.21054 -10.604005,10.69134 h 21.59661 c 0.4387,-0.5495 1.17928,-1.18958 2.36317,-1.9296 0,0 10.23417,-12.09702 14.7531,-9.17257 0,0 12.09591,6.64693 2.26033,8.50698 0,0 -10.23138,-0.91656 -5.92419,2.59519 h 3.37809 c -0.21999,-0.11326 -0.40705,-0.21616 -0.64285,-0.33435 0,0 -3.45706,-0.79788 7.44295,-1.06453 0,0 0.26028,0.55485 0.62064,1.39888 h 3.77444 c -0.24384,-1.46398 -0.55238,-3.07269 -0.93947,-4.85345 0,0 1.06333,-4.91768 -3.32332,-9.30434 0,0 10.23597,-5.18335 9.30486,7.04556 0,0 -3.22075,3.34408 -3.57962,7.11223 h 1.8929 c 0.39366,-1.2588 1.35244,-2.99369 3.41427,-5.38417 0,0 6.73331,0.4812 4.72839,5.38417 h 0.0134 c 0.77368,-1.70842 2.25138,-6.1288 -2.21641,-8.04344 0,0 -2.52631,-5.63828 -1.19631,-7.20524 0,0 2.65787,0.66026 3.72226,5.32836 0,0 -0.13245,-10.88311 -11.43135,-11.282 -11.29886,-0.39888 -14.75363,2.12664 -18.07693,3.05666 0,0 6.91148,-13.55771 22.1971,-5.98103 0,0 2.77244,0.3481 4.04988,1.32136 -0.77423,-0.96536 -2.26694,-2.58296 -4.3155,-3.62355 -3.05777,-1.55321 -11.09993,-3.28742 -13.0266,-0.88883 0,0 -0.79715,-7.44339 13.82293,-3.4556 0,0 7.71031,2.78993 -4.65191,-7.71013 0,0 -1.59959,-0.81217 -2.25981,-4.12068 0,0 -1.46262,2.7908 0.79737,4.51859 1.01892,0.77872 2.52377,1.99011 3.57652,2.90215 1.28441,1.11201 1.89786,1.78186 0.14573,0.68678 -3.19002,-1.99442 -9.5688,-1.1965 -12.49433,0.93017 0,0 -1.2e-4,2.39221 -4.25452,6.5133 0,0 -2.92573,-3.85439 -1.59577,-9.56996 0,0 2.3924,-2.78997 4.38682,-2.65772 0,0 2.4209,0.0178 4.12119,1.99316 0,0 1.72873,0.93008 2.79208,0.26562 0,0 -1.59441,1.4e-4 -2.92437,-2.3921 0,0 -3.18873,-2.92466 -5.18314,-1.46244 0,0 -1.99334,-3.58864 0.39894,-4.91753 0,0 5.31559,-0.79714 6.51226,3.98735 0,0 0.13168,1.94071 1.15704,2.88561 -0.13242,-0.1439 -0.54759,-0.82791 -0.0935,-3.54965 0,0 -1.72773,-8.64021 -9.56996,-4.65243 0,0 -3.2654,3.6047 -1.72806,6.37997 0,0 -2.9256,1.33004 -4.25452,7.31118 0,0 -0.92997,6.64639 0.53227,8.50749 0,0 -3.05748,5.84828 -8.24084,6.24717 0,0 0.6642,-7.57669 4.91753,-6.91224 0,0 1.19596,-0.26603 1.32912,0.39842 0.13357,0.66445 -0.13333,-0.66404 -0.13333,-0.66404 0,0 -3.58766,-0.79773 -5.44876,0.13229 0,0 -1.941,1.72874 -2.32286,3.1409 -0.0455,0.27706 -0.0703,0.44803 -0.0703,0.44803 0,-0.1434 0.0288,-0.29449 0.0703,-0.44803 0.29207,-1.77724 1.65624,-8.86197 5.91075,-16.56643 0,0 8.28207,-8.39032 1.19631,-13.42451 0,0 -4.91766,-4.120475 -12.494325,-2.924884 0,0 -2.546358,1.413952 -4.386297,-0.217559 z m 34.786512,16.794323 c 0.0228,0.0248 0.0398,0.0393 0.0398,0.0393 -0.014,-0.0122 -0.0261,-0.0267 -0.0398,-0.0393 z m 12.99507,16.11581 c 0.38141,0.47557 0.60203,0.80564 0.60203,0.80564 -0.0766,-0.30688 -0.29758,-0.57368 -0.60203,-0.80564 z m -61.929554,-7.12773 c 0.0069,0.0243 0.02128,0.06 0.02636,0.0806 -0.0078,-0.0295 -0.01698,-0.055 -0.02636,-0.0806 z m 0.02636,0.0806 c 0.01141,0.0434 0.02146,0.0894 0.02894,0.14159 0,0 -0.0077,-0.055 -0.02894,-0.14159 z m -9.329147,-18.5136 c 0.235505,-0.25349 0.451652,-0.40566 0.451652,-0.40566 -0.201901,0.12915 -0.348914,0.26506 -0.451652,0.40566 z" />
    <text
       xml:space="preserve"
       style="font-style:normal;font-variant:normal;font-weight:normal;font-stretch:normal;font-size:10.5833px;line-height:1.25;font-family:Suravaram;-inkscape-font-specification:Suravaram;text-align:center;text-anchor:middle;fill:#000000;fill-opacity:1;stroke:none;stroke-width:0.264583"
       x="95.198631"
       y="164.71837"
       id="text2644"><tspan
         sodipodi:role="line"
         id="tspan2642"
         style="font-style:normal;font-variant:normal;font-weight:normal;font-stretch:normal;font-family:Bungee;-inkscape-font-specification:Bungee;text-align:center;text-anchor:middle;stroke-width:0.264583"
         x="95.198631"
         y="164.71837">In &amp; About the</tspan><tspan
         sodipodi:role="line"
         style="font-style:normal;font-variant:normal;font-weight:normal;font-stretch:normal;font-family:Bungee;-inkscape-font-specification:Bungee;text-align:center;text-anchor:middle;stroke-width:0.264583"
         x="95.198631"
         y="178.81767"
         id="tspan2646">Word</tspan></text>
  </g>
</svg>
