<?xml version="1.0" encoding="UTF-8" standalone="no"?>
<!-- Created with Inkscape (http://www.inkscape.org/) -->

<svg
   id="svg36537"
   version="1.1"
   viewBox="0 0 210 297"
   height="297mm"
   width="210mm"
   sodipodi:docname="logo_iatw2.svg"
   inkscape:version="1.1.2 (0a00cf5339, 2022-02-04)"
   xmlns:inkscape="http://www.inkscape.org/namespaces/inkscape"
   xmlns:sodipodi="http://sodipodi.sourceforge.net/DTD/sodipodi-0.dtd"
   xmlns="http://www.w3.org/2000/svg"
   xmlns:svg="http://www.w3.org/2000/svg">
  <sodipodi:namedview
     id="namedview30"
     pagecolor="#505050"
     bordercolor="#eeeeee"
     borderopacity="1"
     inkscape:pageshadow="0"
     inkscape:pageopacity="0"
     inkscape:pagecheckerboard="0"
     inkscape:document-units="mm"
     showgrid="false"
     inkscape:zoom="0.71891835"
     inkscape:cx="396.42889"
     inkscape:cy="561.25984"
     inkscape:window-width="1920"
     inkscape:window-height="1016"
     inkscape:window-x="2560"
     inkscape:window-y="1107"
     inkscape:window-maximized="1"
     inkscape:current-layer="svg36537" />
  <defs
     id="defs36534">
    <rect
       x="-785.62242"
       y="24.406598"
       width="277.22575"
       height="83.162263"
       id="rect23747" />
    <pattern
       patternUnits="userSpaceOnUse"
       width="665.32649"
       height="166.69137"
       patternTransform="translate(91.300986,342.04047)"
       id="pattern129">
      <text
         xml:space="preserve"
         style="font-style:normal;font-variant:normal;font-weight:normal;font-stretch:normal;font-size:79.1838px;line-height:1.25;font-family:Bungee;-inkscape-font-specification:Bungee;text-align:center;text-anchor:middle;fill:#000000;fill-opacity:1;stroke:none;stroke-width:0.824829"
         x="333.59344"
         y="62.405312"
         id="text4619"><tspan
           id="tspan4617"
           style="font-style:normal;font-variant:normal;font-weight:normal;font-stretch:normal;font-size:79.1838px;font-family:Bungee;-inkscape-font-specification:Bungee;text-align:center;text-anchor:middle;stroke-width:0.824829"
           x="333.59344"
           y="62.405312">in &amp; about the</tspan><tspan
           style="font-style:normal;font-variant:normal;font-weight:normal;font-stretch:normal;font-size:79.1838px;font-family:Bungee;-inkscape-font-specification:Bungee;text-align:center;text-anchor:middle;stroke-width:0.824829"
           x="333.59344"
           y="161.38498"
           id="tspan4621">word</tspan></text>
      <text
         xml:space="preserve"
         style="font-style:normal;font-variant:normal;font-weight:normal;font-stretch:normal;font-size:79.1838px;line-height:1.25;font-family:Bungee;-inkscape-font-specification:Bungee;text-align:center;text-anchor:middle;fill:#000000;fill-opacity:1;stroke:none;stroke-width:0.824829"
         x="330.19418"
         y="62.224369"
         id="text4619-2"><tspan
           id="tspan4617-0"
           style="font-style:normal;font-variant:normal;font-weight:normal;font-stretch:normal;font-size:79.1838px;font-family:Bungee;-inkscape-font-specification:Bungee;text-align:center;text-anchor:middle;stroke-width:0.824829"
           x="330.19418"
           y="62.224369">in &amp; about the</tspan><tspan
           style="font-style:normal;font-variant:normal;font-weight:normal;font-stretch:normal;font-size:79.1838px;font-family:Bungee;-inkscape-font-specification:Bungee;text-align:center;text-anchor:middle;stroke-width:0.824829"
           x="330.19418"
           y="161.20406"
           id="tspan4621-2">word</tspan></text>
      <text
         xml:space="preserve"
         style="font-style:normal;font-variant:normal;font-weight:normal;font-stretch:normal;font-size:79.1838px;line-height:1.25;font-family:Bungee;-inkscape-font-specification:Bungee;text-align:center;text-anchor:middle;fill:#000000;fill-opacity:1;stroke:none;stroke-width:0.824829"
         x="333.70935"
         y="66.523918"
         id="text4619-3"><tspan
           id="tspan4617-7"
           style="font-style:normal;font-variant:normal;font-weight:normal;font-stretch:normal;font-size:79.1838px;font-family:Bungee;-inkscape-font-specification:Bungee;text-align:center;text-anchor:middle;stroke-width:0.824829"
           x="333.70935"
           y="66.523918">in &amp; about the</tspan><tspan
           style="font-style:normal;font-variant:normal;font-weight:normal;font-stretch:normal;font-size:79.1838px;font-family:Bungee;-inkscape-font-specification:Bungee;text-align:center;text-anchor:middle;stroke-width:0.824829"
           x="333.70935"
           y="165.50362"
           id="tspan4621-5">word</tspan></text>
      <text
         xml:space="preserve"
         style="font-style:normal;font-variant:normal;font-weight:normal;font-stretch:normal;font-size:79.1838px;line-height:1.25;font-family:Bungee;-inkscape-font-specification:Bungee;text-align:center;text-anchor:middle;fill:#000000;fill-opacity:1;stroke:none;stroke-width:0.824829"
         x="329.83917"
         y="66.151711"
         id="text4619-9"><tspan
           id="tspan4617-2"
           style="font-style:normal;font-variant:normal;font-weight:normal;font-stretch:normal;font-size:79.1838px;font-family:Bungee;-inkscape-font-specification:Bungee;text-align:center;text-anchor:middle;stroke-width:0.824829"
           x="329.83917"
           y="66.151711">in &amp; about the</tspan><tspan
           style="font-style:normal;font-variant:normal;font-weight:normal;font-stretch:normal;font-size:79.1838px;font-family:Bungee;-inkscape-font-specification:Bungee;text-align:center;text-anchor:middle;stroke-width:0.824829"
           x="329.83917"
           y="165.13141"
           id="tspan4621-28">word</tspan></text>
      <text
         xml:space="preserve"
         style="font-style:normal;font-variant:normal;font-weight:normal;font-stretch:normal;font-size:79.1838px;line-height:1.25;font-family:Bungee;-inkscape-font-specification:Bungee;text-align:center;text-anchor:middle;fill:#ffffff;fill-opacity:1;stroke:none;stroke-width:0.824829"
         x="335.1705"
         y="58.200058"
         id="text4619-97"><tspan
           id="tspan4617-3"
           style="font-style:normal;font-variant:normal;font-weight:normal;font-stretch:normal;font-size:79.1838px;font-family:Bungee;-inkscape-font-specification:Bungee;text-align:center;text-anchor:middle;fill:#ffffff;stroke-width:0.824829"
           x="335.1705"
           y="58.200058">in &amp; about the</tspan><tspan
           style="font-style:normal;font-variant:normal;font-weight:normal;font-stretch:normal;font-size:79.1838px;font-family:Bungee;-inkscape-font-specification:Bungee;text-align:center;text-anchor:middle;fill:#ffffff;stroke-width:0.824829"
           x="335.1705"
           y="157.17972"
           id="tspan4621-6">word</tspan></text>
    </pattern>
  </defs>
  <path
     id="path35821"
     style="stroke-width:0.135571"
     d="m 103.21605,14.815778 c -1.89122,3.823096 -0.65222,7.220468 3.18172,8.719881 2.04305,-3.124907 0.58986,-7.685475 -3.18172,-8.719881 z m 21.96197,0.154513 c -3.85563,0.978821 -5.98649,4.762837 -4.17391,8.297168 3.55195,-0.664297 5.70722,-4.387307 4.17391,-8.297168 z m -11.14919,4.815726 c -3.95329,1.224205 -5.60418,4.637963 -3.97598,8.371582 4.43994,-1.118458 5.71807,-5.971978 3.97598,-8.371582 z m 19.38538,0.973068 c -3.2171,2.844275 -3.44368,6.472615 -0.52348,9.346716 3.19676,-2.300637 3.39351,-6.473971 0.52348,-9.346716 z m -54.580648,0.0083 c -2.81038,3.297082 -2.5691,7.072658 0.59377,9.313643 2.97577,-2.181334 2.69111,-6.645609 -0.59377,-9.313643 z m 9.87485,2.885095 c -2.81987,3.143887 -2.52977,6.812586 0.73071,9.254216 2.90257,-2.794114 2.54197,-7.348091 -0.73071,-9.254216 z m 13.766088,0.217041 c -0.92754,0.01333 -1.89263,0.248048 -2.837558,0.729154 1.209288,3.90444 4.870878,5.509581 8.448578,3.701067 -0.76959,-2.812565 -3.04664,-4.467089 -5.61102,-4.430221 z m 16.99741,1.028878 c -1.88037,2.750732 -2.68556,5.616791 -3.13159,8.60206 -0.51516,3.452987 -0.92585,6.92092 -1.48983,10.365774 -0.18981,1.159129 -0.70644,2.26377 -1.07384,3.393075 -0.12201,-0.03661 -0.24508,-0.0745 -0.36845,-0.111104 0.26301,-3.81903 0.0296,-7.576886 -1.19735,-11.231874 -1.18896,-3.542464 -2.38057,-7.079864 -4.39921,-10.260355 -0.0366,0.164041 -0.008,0.299606 0.0408,0.428398 0.1193,0.317236 0.24806,0.630637 0.37414,0.945162 2.46604,6.160335 4.61991,12.397686 4.00441,19.184359 -0.24809,2.739885 -0.40259,5.569453 -2.10944,7.918895 -2.99611,4.124063 -6.04645,8.207465 -9.08729,12.298992 -0.141,0.188441 -0.40539,0.284477 -0.72399,0.498678 -0.16133,-4.773448 -1.604678,-8.971692 -3.693828,-13.059153 -1.87088,-3.659055 -3.45848,-7.479712 -4.92942,-11.321788 -0.93273,-2.43214 -1.42487,-5.035097 -2.11356,-7.560778 -0.0597,0.0054 -0.11812,0.01217 -0.17777,0.01757 0.19387,2.009159 0.38634,4.016918 0.60461,6.282304 -1.43434,-3.206247 -3.61026,-4.533082 -6.48436,-4.137215 -0.33486,4.031877 2.85359,7.13627 6.6089,6.389274 v -1.437155 c 1.20116,3.835297 2.3416,7.697922 3.99149,11.328508 2.39147,5.265568 4.00484,10.618936 3.52898,16.451191 -0.0596,0.729372 -0.29453,1.52378 -0.69039,2.131137 -2.95951,4.54569 -5.00242,9.421175 -5.4498,14.872477 -0.18844,2.292501 -0.24948,4.594337 -0.37827,7.080705 -1.65668,-0.814781 -3.25076,-1.515459 -4.76508,-2.360064 -3.25686,-1.817024 -6.43707,-3.752824 -8.69456,-6.845059 -3.2e-4,-8.68e-4 -7.2e-4,-0.0017 -0.001,-0.0026 0,0 0,-5.16e-4 0,-5.16e-4 -0.005,-0.01226 -0.009,-0.02444 -0.014,-0.03669 -0.003,0.0028 -0.007,0.0054 -0.0103,0.0083 7.8e-4,0.0013 0.003,0.005 0.005,0.0072 l 0.004,0.0041 c 0.002,0.0027 0.003,0.0045 0.006,0.0072 6.6e-4,9.02e-4 10e-4,0.0017 0.002,0.0026 -0.19559,-0.201872 -0.41915,-0.383953 -0.57774,-0.611849 -4.03865,-5.797008 -5.29045,-12.190479 -4.09743,-19.114079 0.59516,-3.451633 1.65411,-6.742393 3.20911,-9.879499 4.4169,2.018649 8.14127,-0.794343 8.64288,-4.103627 -3.06389,-0.886632 -5.76576,-0.555961 -7.46311,1.990058 0.95985,-3.176423 2.2922,-6.584235 2.98225,-10.117211 0.86359,-4.420963 0.29821,-9.137695 -0.83922,-10.910961 0.69683,3.810894 0.47999,7.376228 -0.42427,10.886156 -0.88799,3.448923 -2.40512,6.628429 -4.3248,9.842809 -1.59838,-5.313018 -5.36438,-10.805265 -7.73958,-11.437027 8.0511,10.904053 6.49815,14.416426 3.36879,21.510831 -0.002,-7.22e-4 -0.005,-0.0013 -0.007,-0.0021 -0.002,0.0081 -0.003,0.01618 -0.005,0.02429 -2.3e-4,2.3e-4 0.003,-0.0023 0.004,-0.0031 -8.9e-4,0.002 -0.002,0.0037 -0.003,0.0057 l 0.0232,-0.02067 c -0.0664,0.558551 -0.13963,1.115764 -0.19792,1.674315 -0.34164,3.29166 -0.67915,6.581926 -0.9896,9.587529 0.0705,0.138284 -0.0705,-0.0973 -0.17622,-0.346747 -1.26623,-2.992049 -2.50281,-5.997903 -3.79615,-8.977749 -2.03492,-4.686681 -4.81811,-8.783333 -9.40718,-11.338841 -1.46823,-0.817493 -3.03973,-1.449623 -4.56355,-2.166794 0.0556,0.433827 0.23313,0.605062 0.44597,0.705384 6.25388,2.951377 9.82784,8.08536 12.04578,14.447697 1.38553,3.974934 2.94581,7.903454 4.68654,11.734684 1.02084,2.24912 2.55038,4.266761 3.79356,6.296255 -2.02,-0.427048 -4.1189,-1.059042 -6.25957,-1.280025 -3.95866,-0.409422 -7.94164,-0.59662 -11.91658,-0.843359 -7.01037,-0.433827 -13.06093,-3.062275 -18.16788,-7.879104 -0.42434,-0.399934 -0.86221,-0.785201 -1.2852,-1.186492 -0.41484,-0.391798 -0.81892,-0.794113 -1.22834,-1.192692 3.5628,5.323864 8.29287,9.108861 14.38,11.055657 4.62296,1.479076 9.44003,1.684041 14.22704,2.075841 1.62413,0.132858 3.2399,0.368306 4.85861,0.558105 -3.75124,0.492122 -5.82954,2.009211 -6.46265,5.02295 1.80851,0.483986 3.63078,0.78218 5.37693,-0.108521 1.73937,-0.88799 2.78197,-2.391273 3.16156,-4.275707 4.86428,1.080498 8.82561,3.509698 11.86646,7.400581 -4.42367,-1.90206 -7.69515,0.523743 -8.49095,3.164663 3.97358,1.96713 7.57954,0.8201 8.83357,-2.80913 0.22505,0.0813 0.4869,0.11629 0.67127,0.25321 3.42588,2.54738 6.84618,5.10059 10.24899,7.676022 0.27792,0.21013 0.5371,0.57032 0.6103,0.90382 1.45331,6.62535 3.82052,12.90654 7.02541,18.87844 0.13022,0.24403 0.15145,0.5462 0.13385,0.4811 -3.74448,-1.50077 -7.5713,-3.03534 -11.38898,-4.56458 1.80988,-3.90851 1.04245,-6.90844 -2.35902,-8.81186 -1.91969,3.12084 -1.93713,6.07227 1.07797,8.86096 -5.00663,-0.97883 -8.0177,-2.07009 -9.16327,-3.26854 3.66041,-3.52755 2.48478,-7.26675 0.2682,-9.25421 -2.81038,2.55822 -3.28483,5.47409 -1.33532,8.89454 -2.20302,-1.4262 -4.41837,-2.73816 -6.13605,-4.52634 -2.0661,-2.1515 -3.7525,-4.67853 -5.52577,-7.09982 -2.21658,-3.027302 -4.46548,-6.012892 -7.73544,-8.009852 -1.8885,-1.152346 -3.88574,-1.995457 -6.18774,-1.957497 4.76125,1.575327 7.94067,4.934677 10.465,9.050609 1.9007,3.10186 3.8025,6.20229 5.70456,9.30279 0.21962,0.25759 0.43925,0.51653 0.65887,0.77411 1.38689,1.31911 2.77375,2.63819 4.23385,4.02508 -2.33588,0.44739 -4.5593,0.89217 -6.7908,1.28261 -0.40671,0.0705 -0.88648,0.005 -1.27692,-0.14521 -3.06661,-1.17811 -6.21711,-2.19989 -9.15086,-3.65456 -2.62601,-1.30148 -5.02034,-3.07659 -7.49722,-4.67362 -1.04932,-0.67648 -2.34825,-1.22129 -3.02204,-2.18384 -2.80067,-3.99903 -5.40748,-8.133622 -8.08478,-12.219412 0,0 0,-5.2e-4 0,-5.2e-4 l 0.002,0.001 c -4e-4,-3.2e-4 -10e-4,-2e-4 -0.002,-5.2e-4 0.003,0.004 0.0455,0.0413 0.0455,0.0413 -2.1e-4,-6.7e-4 -3.1e-4,-0.001 -5.2e-4,-0.002 l 0.003,0.003 c -10e-4,-0.002 -0.003,-0.003 -0.004,-0.005 -3.8e-4,-0.001 -6.6e-4,-0.002 -0.001,-0.004 -0.002,-10e-4 -0.003,-0.002 -0.005,-0.004 -2.3966,-3.134062 -4.86991,-6.192857 -8.31422,-8.315765 5.7821,5.296749 8.47861,12.621795 12.73824,19.022097 -8.87582,-2.08508 -11.77573,-2.29229 -15.33446,-1.06402 0.40535,0.0366 0.69166,0.0719 0.97772,0.0868 5.47028,0.28877 10.66014,1.5776 15.28175,4.60489 2.26946,1.48721 4.3582,3.24577 6.56394,4.8333 2.88359,2.07559 5.80245,4.10373 8.70231,6.14949 -0.0475,0.0217 -0.24939,0.12186 -0.45682,0.21136 -5.29539,2.29115 -10.54475,4.6949 -15.8998,6.83421 -4.49146,1.7936 -9.06825,3.40025 -13.68444,4.84001 -1.95628,0.61007 -4.11038,0.58277 -6.59133,0.89866 8.63993,1.63633 15.76163,-2.49056 23.54068,-4.48345 -4.14033,6.39623 -9.20566,11.4925 -15.49207,15.41456 0.56668,-0.0339 1.09812,-0.119 1.53737,-0.36845 2.35758,-1.33537 4.77907,-2.58536 7.01869,-4.10104 4.25015,-2.87681 7.3684,-6.89522 10.30894,-11.00708 1.86816,-2.61245 4.70014,-2.83204 7.62847,-3.87728 -2.81716,3.12489 -3.3136,5.5746 -1.63659,8.42429 1.13744,-1.03848 2.3806,-1.90101 3.26181,-3.04116 1.36791,-1.77191 0.76604,-3.85529 0.3173,-5.87665 7.35064,-1.9129 14.62429,-2.44181 22.39656,-0.97358 -2.13659,1.02491 -3.88269,1.84232 -5.61258,2.69234 -3.98442,1.95765 -7.57832,4.46296 -9.95081,8.28063 -2.40909,3.87597 -4.54194,7.92421 -6.79648,11.89643 1.60109,-1.81122 3.15767,-3.71209 4.65708,-5.65753 2.03627,-2.64228 3.72921,-5.63291 6.10712,-7.91321 3.94782,-3.78378 8.95045,-5.76846 14.37328,-6.44767 1.68921,-0.21149 3.72024,-0.44167 5.12475,0.26872 6.96969,3.52213 12.5308,8.64088 15.989208,15.76647 2.12846,4.38708 2.75184,9.01838 1.77302,13.95316 -0.47856,-0.44196 -0.8392,-0.80913 -1.23507,-1.13585 -2.61516,-2.15422 -5.090418,-4.51769 -7.889958,-6.39806 -4.16473,-2.79547 -8.80255,-3.55963 -13.6126,-1.74976 -2.67075,1.00458 -5.34689,2.07554 -7.85224,3.42718 -4.84259,2.61381 -9.73151,5.00526 -15.20992,6.01255 -5.34014,0.98153 -10.66254,1.44492 -16.0569,0.42271 -3.33098,-0.6304 -6.68116,-1.18861 -10.04332,-1.61023 -1.6743,-0.21013 -3.39698,-0.0367 -4.87877,-0.0367 3.86648,0.91646 7.95535,1.57799 11.83132,2.87269 6.95072,2.32368 13.94044,2.75747 21.09587,1.47226 1.82614,-0.32808 3.65212,-0.65633 5.87819,-1.05626 -3.52348,3.70379 -6.94075,6.8533 -11.26546,8.90178 -1.69599,-3.76616 -6.05353,-4.71097 -9.38857,-2.1053 1.5089,2.08508 3.40022,3.43643 6.1035,3.42563 -0.80665,0.25216 -1.61491,0.50283 -2.42156,0.75499 0.7104,0.16 1.41534,0.22552 2.03761,0.0289 2.8036,-0.88664 5.58289,-1.84663 8.37158,-2.78071 0.24945,-0.12337 0.50037,-0.2456 0.74982,-0.36897 1.6377,-1.22556 3.27674,-2.45225 4.91443,-3.67781 0.14913,0.0868 0.29962,0.17493 0.4501,0.26303 -1.91426,5.02155 -3.82973,10.04139 -5.79551,15.19442 -4.26641,-3.48687 -7.07015,-3.70199 -9.77615,-1.0082 2.55145,3.1832 4.88856,3.56384 9.10074,1.44487 -0.0325,0.32402 -0.0624,0.60995 -0.12609,1.2268 3.373,-5.2615 6.02495,-10.5026 7.43624,-16.23725 0.89205,-3.62245 3.27259,-6.0221 6.10195,-7.76283 2.89173,-1.7787 6.24429,-2.8629 9.47901,-4.01526 3.52484,-1.25403 7.05917,-1.08314 10.08104,1.34358 3.86648,3.10457 6.27278,7.2286 7.556638,11.99255 0.12744,0.47314 -0.10972,1.15601 -0.3917,1.60611 -1.083218,1.72717 -2.277388,3.38252 -3.386358,5.09478 -3.40147,5.25065 -7.0484,10.36582 -10.09603,15.81712 -3.24556,5.80785 -3.74328,12.04291 -1.1715,18.38492 1.32317,3.26183 3.45341,5.93912 5.65237,8.60309 1.90477,2.30741 3.17599,4.89966 2.90214,7.9866 -0.3796,4.26506 -3.73997,7.92023 -8.26667,8.86922 -2.41587,0.50568 -4.90372,0.65041 -7.33857,1.07746 -3.89902,0.68328 -7.25567,2.72647 -10.60969,4.64209 -2.79412,1.59702 -5.754,2.30908 -8.87078,2.49752 -5.07848,0.30639 -10.01307,1.17774 -14.71331,3.19774 -0.46365,0.19934 -1.0264,0.27281 -1.53479,0.24701 -2.79683,-0.14235 -5.59465,-0.50315 -8.38605,-0.45165 -1.9224,0.0352 -3.83565,0.61533 -5.75262,0.95291 0.0203,0.12473 0.0396,0.24838 0.0599,0.37311 3.99392,-0.57211 7.98212,-0.84629 12.22819,0.11627 -3.45569,1.81664 -6.88547,2.71303 -10.46861,3.17397 -3.34995,0.43111 -6.44756,1.56579 -9.12915,3.75119 3.94646,-1.96171 8.19923,-2.12825 12.46022,-2.26653 0.67649,-0.0217 1.372,-0.0556 2.02003,-0.23048 4.90902,-1.32317 9.77583,-2.8226 14.72416,-3.97495 2.57721,-0.60058 5.2942,-0.61001 7.94732,-0.88521 0.0434,0.15455 0.0868,0.30743 0.13023,0.46198 -2.23828,3.32962 -4.47802,6.65919 -6.65799,9.90069 2.29385,-1.26217 4.43015,-2.93878 5.96345,-5.24619 2.07695,-3.12627 4.80079,-5.13006 8.49509,-6.13193 3.58043,-0.97069 6.97648,-2.60571 10.53114,-3.69434 2.39961,-0.73481 4.93469,-1.02924 7.40885,-1.52136 0.0488,0.15049 0.0974,0.29961 0.14625,0.4501 -0.38773,0.34028 -0.75627,0.7079 -1.16841,1.01699 -2.29114,1.71633 -4.64851,3.35112 -6.87865,5.14336 -3.15608,2.53653 -5.30117,5.93928 -7.40523,9.31364 -1.39773,2.24234 -3.22937,3.63474 -5.71438,4.40749 -2.16913,0.67515 -4.35719,1.40051 -6.37584,2.42 -1.38146,0.69819 -2.69521,0.97727 -4.177,0.85525 -2.70871,-0.22233 -5.41697,-0.55835 -8.12974,-0.59635 -3.27946,-0.0461 -6.22423,1.03169 -8.63875,3.37706 2.54196,-1.51161 5.2506,-2.51064 8.22637,-2.30322 2.92698,0.20471 5.8405,0.60482 9.06302,0.95188 -4.82226,4.28268 -9.39258,8.35082 -15.53394,10.06036 0.38502,0.0777 0.71591,0.051 1.04128,-0.005 4.72058,-0.80666 8.65602,-3.22418 12.53877,-5.87459 2.70599,-1.84647 5.55575,-3.56116 8.53695,-4.89789 2.43214,-1.08999 5.15604,-1.53465 8.16436,-2.38332 -0.70497,2.31012 -1.20513,4.47483 -2.02262,6.51381 -1.58753,3.96004 -2.60858,7.99186 -2.31304,12.30571 0.18709,-0.22233 0.33095,-0.4635 0.37569,-0.72244 0.66159,-3.87054 2.20438,-7.40499 4.05763,-10.83086 1.52518,-2.81987 2.34379,-5.83778 2.4536,-9.05216 0.0149,-0.45145 0.17095,-0.96914 0.43667,-1.32705 1.64854,-2.22336 3.29417,-4.45214 5.03897,-6.59959 2.4823,-3.05577 5.84453,-4.90088 9.448,-6.79752 -0.27114,1.3652 -0.55147,2.44565 -0.69247,3.54242 -0.76733,5.99494 -2.14783,11.77044 -4.7196,17.31935 -1.39909,3.0178 -1.86391,6.46942 -2.74919,9.72448 0.1437,0.0433 0.28728,0.0868 0.43098,0.13023 0.14642,-0.33758 0.3253,-0.66567 0.43512,-1.01545 1.2486,-3.99256 2.86213,-7.81436 4.8984,-11.48561 1.09542,-1.97256 1.94785,-4.13481 2.55386,-6.31072 0.88256,-3.16965 1.37899,-6.4451 2.15852,-9.64593 0.7131,-2.93104 2.13908,-5.31874 5.09995,-6.64868 1.94815,-0.87579 3.72419,-2.13638 5.79706,-3.35381 0.35791,4.7626 2.472888,8.65754 4.648808,12.59045 1.17404,2.12168 1.89289,4.57122 2.41484,6.96133 0.75106,3.44214 -1.01441,6.20823 -3.08457,8.74882 -2.6477,3.25099 -6.131808,5.49016 -9.565818,7.78402 -2.34944,1.56855 -4.70824,3.1389 -6.02599,5.77846 -1.6038,3.21167 -3.13186,6.47983 -6.76651,8.0145 2.74124,-0.44739 4.64458,-1.81216 6.66729,-4.55475 1.06288,-1.44248 1.93211,-3.21466 3.33933,-4.17857 3.32284,-2.27623 6.91411,-4.15652 10.646378,-6.34328 -2.040338,7.38725 -0.13006,13.86481 3.00705,20.14038 -0.4257,-2.66126 -1.04157,-5.29408 -1.42523,-7.96076 -0.90426,-6.28234 0.11816,-12.1143 3.9982,-17.36225 3.56551,-4.82225 4.94835,-10.2496 3.75533,-16.22691 -0.6521,-3.26997 -1.28951,-6.54269 -1.9172,-9.72861 2.19218,2.43079 4.32758,5.06095 6.74481,7.39955 2.17455,2.1027 2.8107,4.60694 3.05201,7.45122 0.27386,3.23336 0.50968,6.51837 1.31362,9.63921 0.61145,2.37385 0.82151,4.68527 0.58291,7.03471 -0.2142,2.11219 -0.68091,4.21486 -1.22319,6.27144 -1.35705,5.1517 -0.0378,10.93353 2.36317,14.46787 -0.52195,-2.24235 -1.20118,-4.52269 -1.55908,-6.85179 -0.43654,-2.83884 0.29286,-5.57329 1.14153,-8.29148 0.64125,-2.05391 0.99247,-4.19869 1.48053,-6.3407 2.96222,3.64957 5.95039,7.26941 8.86923,10.94611 2.5311,3.18725 4.50633,6.8276 7.72614,9.44954 0.58837,0.47856 1.20654,0.91877 1.67019,1.27125 -1.73803,-2.706 -3.54526,-5.45666 -5.28599,-8.24807 -1.87359,-3.00561 -3.66056,-6.0638 -5.53144,-9.07076 -0.97475,-1.56721 -2.04054,-3.07599 -3.0763,-4.60387 -2.71548,-4.00612 -3.76712,-8.43423 -3.60443,-13.25242 0.2142,-6.28641 -1.2761,-12.12407 -5.02192,-17.28525 -0.20606,-0.2847 -0.3005,-0.64772 -0.3669,-0.79685 1.5211,0.47314 3.06648,1.35797 4.60385,1.34307 2.86868,-0.0285 5.23851,0.88 7.63675,2.33061 3.37165,2.03898 6.53551,4.08099 7.95765,8.08168 1.56042,4.38979 4.74383,8.15563 4.95939,13.08499 0.061,1.39366 0.40104,2.78359 0.68574,4.16098 0.66565,3.22794 2.15826,6.06245 4.23385,8.63153 -2.08643,-4.31252 -3.00131,-8.85254 -3.07991,-13.84154 4.93614,3.80411 11.598,4.43289 14.99133,10.0862 -0.14235,-0.70768 -0.3784,-1.28381 -0.71055,-1.79627 -1.85596,-2.86325 -4.51816,-4.78565 -7.52512,-6.25388 -3.23201,-1.57804 -5.94646,-3.66463 -7.45536,-7.04712 -0.61143,-1.37333 -1.21477,-2.75186 -1.84382,-4.11706 -1.96442,-4.26506 -2.9675,-9.10076 -6.89363,-11.6644 2.30606,-0.14778 4.8426,-0.23871 7.36286,-0.49765 1.38825,-0.14235 2.73844,-0.63581 4.12533,-0.84594 3.07881,-0.46501 5.69124,0.26972 7.31945,3.175 0.63854,1.13879 1.31403,2.27228 1.79937,3.47886 1.58076,3.92749 3.30502,7.76677 5.90662,11.15332 1.50483,1.959 1.53317,4.20112 1.19424,6.53293 -0.39587,2.72769 -0.84434,5.46369 -0.9772,8.21035 -0.11116,2.28436 1.02623,4.059 2.45514,4.79919 -3.65499,-4.80597 -0.58981,-9.60116 0.18294,-14.43425 0.59516,1.46958 0.8919,3.00814 1.4857,4.4235 0.57482,1.36791 1.27607,2.76565 2.24947,3.85971 0.96526,1.08321 2.33719,1.8032 3.53157,2.68305 0.10303,-0.11661 0.20703,-0.23429 0.31006,-0.3509 -3.1005,-1.73936 -4.75818,-4.4483 -5.21777,-7.84706 -0.45958,-3.40147 -1.73829,-6.42575 -3.64578,-9.24698 -0.89476,-1.32317 -1.64989,-2.74556 -2.40502,-4.15685 -0.47857,-0.89612 -0.87142,-1.84217 -1.24695,-2.78846 -0.35249,-0.88934 -0.63077,-1.80863 -0.94258,-2.7156 2.969,2.47823 6.55927,3.35526 9.91464,4.7191 6.24982,2.53923 11.04339,6.50908 13.24777,13.17645 0.77004,2.33046 1.82615,4.59009 2.97037,6.766 1.03305,1.96442 3.12757,3.55496 4.64054,3.79356 -4.83309,-3.20625 -5.66678,-8.30799 -7.22178,-13.29428 4.75582,2.92833 9.85347,3.4408 15.02957,3.61839 -1.757,-0.50432 -3.55638,-0.83639 -5.32422,-1.29191 -4.41147,-1.13472 -8.38745,-2.9539 -11.2019,-6.80682 -1.22421,-1.67566 -2.74528,-3.14809 -4.223,-4.62039 -2.93104,-2.91884 -6.75842,-4.31244 -10.43915,-5.92574 -2.35488,-1.03305 -4.32215,-2.42543 -5.949,-4.50102 -3.53298,-4.51044 -8.2305,-6.6935 -14.04513,-6.7138 -2.67753,-0.008 -5.59486,-0.11094 -7.98091,-1.1467 -5.18422,-2.24912 -10.1135,-5.09616 -15.10657,-7.77368 -0.8175,-0.43789 -1.49828,-1.19842 -2.12597,-1.91151 -3.08017,-3.49638 -6.04064,-7.10249 -9.19944,-10.52701 -3.22252,-3.49366 -6.70944,-6.72734 -9.06973,-10.95851 -2.41452,-4.32876 -3.202078,-8.8378 -0.69402,-13.17335 4.27183,-7.38319 8.92294,-14.54787 13.46998,-21.76973 2.78869,-4.43045 10.4485,-6.97653 16.00419,-4.25969 3.78921,1.85325 7.58139,3.70655 11.42618,5.44049 3.46926,1.5645 7.14581,2.31422 10.97297,2.29392 -0.19116,-0.16675 -0.40263,-0.28491 -0.62632,-0.31471 -4.01153,-0.54364 -7.64518,-2.11455 -11.11715,-4.10879 -3.15609,-1.81259 -6.24162,-3.75666 -9.45058,-5.46892 -3.82581,-2.0417 -7.88747,-2.2711 -12.0034,-0.93844 -1.39231,0.4501 -2.72063,1.09258 -4.12378,1.66605 -0.023,-0.24403 -0.0667,-0.39018 -0.045,-0.5271 0.79851,-5.0351 2.52872,-9.75713 4.94595,-14.21877 0.75242,-1.3896 1.59281,-2.9162 2.80345,-3.84214 5.70211,-4.3586 12.07263,-6.03576 19.18332,-4.18115 1.65125,0.42976 3.05311,1.02512 3.80959,2.74144 0.68328,1.54822 1.59151,2.99754 2.37918,4.50102 2.22471,4.24608 4.42225,8.50688 6.67815,12.73669 0.32401,0.60871 0.91113,1.07815 1.37614,1.6123 0.0448,-0.042 0.0881,-0.0858 0.13281,-0.12919 -1.18218,-2.68294 -2.3656,-5.36688 -3.54914,-8.05119 2.80632,2.5284 5.3533,3.16381 7.99693,1.81488 -1.07372,-4.18103 -3.85244,-5.51596 -8.59741,-4.11551 -0.95307,-2.49586 -1.90624,-4.99485 -2.94607,-7.72253 0.62227,0.38095 1.03279,0.62815 1.43815,0.88574 3.60212,2.28573 7.10545,4.76361 11.40034,5.66787 0.38637,0.08 0.71172,0.46349 1.05472,0.72243 2.36029,1.7814 4.68395,3.61314 7.08897,5.33353 1.39367,0.99645 2.9162,1.81555 4.07262,2.52594 -0.42569,0.44738 -0.97465,0.77646 -1.14412,1.24282 -1.22013,3.34996 0.38336,6.59706 3.76722,7.7711 1.4506,-3.0761 1.28658,-5.00121 -0.73071,-7.89564 0.51788,0.15862 0.94367,0.28888 1.38699,0.42581 -4.2542,-3.13711 -8.44316,-6.22553 -12.6323,-9.31519 0.0827,-0.15455 0.16535,-0.30794 0.24805,-0.4625 6.91817,0.0732 13.61668,-2.79256 20.6406,-1.3162 -4.54433,-1.61329 -9.17835,-1.29328 -13.83792,-0.97875 -2.68295,0.18026 -5.38756,0.0325 -8.08271,0.0325 -0.0217,-0.1532 -0.0444,-0.30776 -0.0661,-0.46095 4.97274,-1.67023 9.94522,-3.34187 14.91796,-5.0121 -0.0204,-0.0786 -0.0391,-0.15731 -0.0594,-0.23461 -2.83343,0.47992 -5.667,0.96143 -8.9085,1.5105 2.34944,-1.52246 3.53157,-3.2999 3.55327,-5.76864 -5.04188,-0.43654 -8.08705,2.17698 -7.10551,5.97431 0.66836,0.0353 1.34651,0.0691 2.02571,0.10439 -2.55551,0.88799 -5.12059,1.56875 -7.70185,2.18695 -0.43925,0.10439 -1.05589,0.10295 -1.39888,-0.13023 -2.99476,-2.03627 -5.94492,-4.13773 -8.9085,-6.21874 0.46772,0.10846 0.93697,0.21156 1.40198,0.32814 3.02594,0.75107 5.89307,-0.85553 6.91121,-3.87469 -4.63747,-2.10056 -7.99319,-0.86855 -8.87595,3.25716 -3.4e-4,-1.8e-4 -6.9e-4,-3.3e-4 -0.001,-5.1e-4 -0.42705,-0.20742 -0.8679,-0.39024 -1.28002,-0.62477 -6.25661,-3.55467 -12.83722,-4.49975 -19.77709,-2.435 -1.16726,0.34841 -2.294,0.83075 -3.74189,1.36219 2.07152,-2.98662 4.33274,-5.31285 7.18923,-6.95461 7.72074,-4.43588 16.0775,-3.62088 24.41918,-2.81016 0.14369,0.0149 0.29159,0.0462 0.42581,0.0977 4.43452,1.67972 8.90837,3.26586 13.29273,5.06895 5.59637,2.30199 11.23628,4.28268 17.40204,4.23798 0.47585,-0.003 1.07629,0.50803 1.41386,0.94051 2.09457,2.68565 5.5802,3.25809 8.40414,1.31672 -1.65939,-3.44079 -5.50457,-5.57487 -8.90333,-2.75229 -0.21962,0.18301 -0.64773,0.27784 -0.92294,0.20464 -3.08288,-0.81885 -6.28267,-1.37474 -9.20151,-2.59622 -4.9985,-2.09187 -9.81759,-4.60686 -14.70763,-6.95359 -0.043,-0.0203 -0.0233,-0.16925 -0.0382,-0.30075 3.28082,-0.32537 6.35129,-1.3395 9.21184,-2.95279 2.40773,-1.35842 4.74403,-2.84823 7.16804,-4.17546 3.31063,-1.81123 6.67546,-3.52362 10.01593,-5.27926 l -0.045,0.046 c 0.002,-10e-4 0.005,-0.002 0.007,-0.003 -0.002,0.002 -0.007,0.007 -0.007,0.007 0.0104,7.6e-4 0.0206,0.002 0.031,0.003 0.002,-0.008 0.004,-0.0159 0.006,-0.0238 0.89055,-0.41179 1.7827,-0.82219 2.67322,-1.23403 -0.0394,-0.11252 -0.079,-0.22492 -0.11834,-0.33745 -2.33317,0.76733 -4.75038,1.35012 -6.98459,2.3425 -4.43045,1.96849 -8.74979,4.18501 -13.13821,6.24974 -1.29877,0.61008 -2.67446,1.05625 -4.01526,1.5782 2.85921,-1.96578 3.67109,-5.23603 2.78174,-7.40109 -4.52671,0.5599 -6.45158,3.35545 -5.30872,8.04756 h -9.86296 c 4.5362,-1.11846 6.5713,-3.40954 6.02495,-6.58461 -1.99289,-0.1559 -3.86115,0.20361 -5.43377,1.52136 -1.51837,1.27301 -1.68371,3.04625 -1.50069,5.11235 -2.71606,-0.28307 -5.29361,-0.55289 -7.87083,-0.82114 -2.3e-4,-0.004 -8.1e-4,-0.008 -0.001,-0.0124 -0.0114,0.003 -0.0226,0.006 -0.0341,0.009 -0.003,-3.5e-4 -0.007,-6.8e-4 -0.0103,-0.001 l 0.004,0.003 c -0.002,3.9e-4 -0.003,6.4e-4 -0.005,0.001 l 0.0455,0.0351 c -2.95088,0.14197 -5.93288,0.0533 -8.84442,0.46922 -8.38642,1.19709 -14.53976,5.89307 -18.93632,12.93462 -2.11084,3.38112 -3.84863,6.9944 -5.75882,10.5084 0.0502,0.023 -0.0276,0.009 -0.0326,-0.0191 -0.22912,-1.27979 -0.45004,-2.56256 -0.67645,-3.84369 -1.17675,-6.65788 -2.05266,-13.35085 -1.53479,-20.12126 0.21421,-2.78598 0.4701,-5.67928 1.40147,-8.27546 1.94544,-5.42555 6.44684,-8.33717 11.61479,-10.23245 5.1517,-1.88986 10.47008,-1.09426 15.70448,-0.46251 7.31269,0.88257 14.55361,2.45515 21.97747,2.13114 2.75886,-0.1193 5.51052,-0.38621 8.26668,-0.58549 l -0.0196,0.0129 c -0.46683,0.21536 -0.93372,0.43015 -1.38183,0.63614 0.80936,4.27183 4.23372,6.3721 7.9592,4.95267 -1.33537,-4.35318 -3.09651,-5.8416 -6.59288,-5.57589 l 0.0103,-0.006 c 4.124,-1.1648 8.32362,-2.12234 12.3486,-3.56515 2.98391,-1.0683 5.74132,-2.771022 8.60051,-4.190452 -0.0719,-0.18301 -0.14256,-0.36455 -0.21446,-0.54622 -10.65722,6.108832 -22.15739,7.788372 -33.93849,6.943772 2.53382,-1.6865 5.08937,-3.494942 7.75198,-5.129922 3.29437,-2.02272 6.58058,-4.09797 10.04848,-5.783109 2.93511,-1.426205 6.12354,-2.326365 9.20099,-3.459737 -1.2242,0.201999 -2.47431,0.378119 -3.64836,0.776695 -3.43349,1.164381 -6.83705,2.415601 -10.25157,3.632854 0,0 -5.1e-4,0 -5.1e-4,0 l 0.002,-0.0026 c -6.1e-4,7.85e-4 -9.5e-4,0.0018 -0.002,0.0026 0.002,-7.01e-4 0.046,-0.04444 0.046,-0.04444 -10e-4,2.27e-4 -0.002,2.91e-4 -0.003,5.18e-4 l 0.005,-0.0047 c -0.004,0.0021 -0.008,0.0047 -0.0119,0.0067 -0.002,4.18e-4 -0.004,6.16e-4 -0.006,10e-4 -6.5e-4,8.95e-4 -0.001,0.0017 -0.002,0.0026 -5.49861,2.788159 -9.73636,7.870861 -16.52303,9.108491 3.66448,-2.19083 4.69235,-4.460262 3.80029,-7.863092 -4.76531,1.05067 -6.23505,3.25468 -5.29012,8.029492 -0.3918,0 -0.77557,0.0475 -1.14567,-0.007 -5.55704,-0.82292 -11.09886,-1.76122 -16.67081,-2.4567 -3.57501,-0.446032 -7.17597,-0.292702 -10.64793,0.88677 -1.15914,0.39451 -2.29677,0.84882 -3.64164,1.34772 3.07746,-4.347762 8.14387,-7.561982 14.26218,-9.057331 4.27726,-1.045249 8.59114,-1.939009 12.86433,-3.001883 3.52078,-0.875786 7.00364,-1.901999 10.50272,-2.861841 0.22234,-0.02169 0.4448,-0.04342 0.66714,-0.06511 2.50942,-0.934082 4.96981,-2.461858 7.53752,-2.670638 4.4196,-0.359262 8.48701,-1.489823 12.31553,-3.55999 2.25047,-1.21607 4.3474,-2.711301 6.51382,-4.08192 -0.0664,-0.11117 -0.13153,-0.223697 -0.19793,-0.334864 -5.33334,2.509416 -10.67472,4.996727 -16.8093,5.663737 6.22675,-5.070348 12.30858,-10.025174 18.39164,-14.978931 -1.5794,0.717169 -3.0409,1.617324 -4.46846,2.570385 -1.99967,1.336728 -3.97477,2.711101 -5.96088,4.069519 -0.001,9.95e-4 -0.002,0.0021 -0.003,0.0031 -0.0678,0.06289 -0.12951,0.131244 -0.18552,0.20464 -4.8e-4,3.81e-4 -10e-4,6.53e-4 -0.002,10e-4 0.0566,-0.074 0.11843,-0.142378 0.18707,-0.205674 0.18166,-0.28063 0.35655,-0.566922 0.54364,-0.840774 2.02407,-2.940532 1.55761,-6.08997 -1.25006,-8.447548 -3.44202,3.527425 -3.22085,7.596108 0.5178,9.495547 -1.12949,0.881901 -2.20246,1.851136 -3.39979,2.627227 -2.53653,1.644476 -5.13822,3.187497 -7.71271,4.772319 l 0.0455,-0.04341 c -0.006,-0.0018 -0.0127,-0.0039 -0.0191,-0.0057 -0.005,0.009 -0.0103,0.01792 -0.0155,0.02687 -2.36197,1.561365 -5.0052,2.410643 -7.69204,3.147095 3.09916,-3.368935 3.55573,-5.729415 1.57097,-8.880078 -1.68785,1.028983 -3.15895,2.230524 -3.86798,4.165121 -0.7131,1.948151 0.16829,3.551705 1.41283,5.391401 -7.54859,1.468231 -14.85604,2.890274 -22.27719,4.334102 0.0922,-0.317235 0.10198,-0.516524 0.19688,-0.658873 2.59889,-3.917998 5.03495,-7.959153 7.85482,-11.710397 3.38114,-4.499594 7.24641,-8.640024 9.56738,-13.873054 0.19658,-0.441963 0.78615,-0.836417 1.27692,-1.000456 5.15847,-1.729885 9.64457,-4.549963 13.49479,-8.358148 1.37604,-1.36113 2.54069,-2.936478 3.80286,-4.414199 -0.0976,-0.08948 -0.19385,-0.178721 -0.29145,-0.268201 -4.72871,4.849366 -10.2139,8.494856 -16.88941,10.844298 2.4457,-6.710754 3.2565,-13.365737 3.1657,-20.193082 -1.35842,14.438288 -7.11783,26.704345 -17.83199,36.411214 1.19709,-2.701925 0.39593,-5.095716 -1.64848,-7.233666 -3.68888,3.108637 -3.64821,7.458715 -0.23047,9.429914 -2.24912,3.961379 -4.48324,7.926771 -6.76083,11.866459 -0.21827,0.375531 -0.66726,0.707673 -1.08211,0.867648 -11.14121,4.28811 -17.45301,13.020652 -21.54183,23.672462 -0.96662,2.5189 -1.18754,5.32373 -1.75287,8.00261 0.0109,10e-4 -0.0585,0.0121 -0.0734,-0.0109 -0.31181,-0.48399 -0.62894,-0.96677 -0.92449,-1.46296 -2.54602,-4.27726 -5.0949,-8.55177 -3.98322,-13.88649 0.16675,-0.80393 0.22538,-1.6334 0.30128,-2.4536 0.49076,-5.26286 2.40771,-9.708602 6.86934,-12.917562 3.10864,-2.235562 6.0868,-4.667533 8.98395,-7.174237 1.28656,-1.113036 2.22868,-2.624482 3.44475,-4.099492 -2.89308,2.114905 -5.50778,4.09969 -8.20156,5.973279 -2.07153,1.441119 -4.25196,2.724742 -6.36551,4.106209 -3.15338,2.060675 -5.45782,4.814311 -6.58306,8.440831 -0.591088,1.904772 -1.022108,3.859742 -1.605068,6.099372 -0.4989,-1.94815 -0.96257,-3.61828 -1.3503,-5.30614 -1.41672,-6.167112 -2.0281,-12.369831 -0.37414,-18.584396 0.40265,-1.514327 0.87818,-3.221254 1.88412,-4.324802 3.248268,-3.564155 6.946788,-6.700936 11.209138,-8.983946 3.1466,-1.686502 6.41648,-3.495294 9.84642,-4.20026 3.27674,-0.672433 6.85715,-0.209778 10.25726,0.168465 2.71277,0.300966 5.26543,1.202275 7.44812,3.216857 2.25997,2.085078 5.72118,1.572673 7.8171,-0.676444 -2.01125,-2.515087 -3.81031,-3.266757 -6.95255,-2.907316 -1.44267,1.458897 -2.934,1.98899 -4.70101,0.402043 -0.48128,-0.431115 -1.19312,-0.653627 -1.83709,-0.847495 -2.16913,-0.650738 -4.3545,-1.246021 -6.52364,-1.858801 2.12982,-1.152351 4.356,-2.304532 6.53191,-3.545004 5.39571,-3.076102 10.05812,-6.845038 11.8246,-13.17077 0.8297,-2.973068 1.54816,-5.974459 2.3182,-8.963795 -0.16946,-0.06914 -0.33902,-0.139631 -0.50849,-0.208772 -1.87631,9.188987 -5.42533,17.146796 -15.09831,20.725865 3.30929,-7.272017 3.63181,-14.827012 2.72077,-22.524722 -0.17624,2.506704 -0.23846,5.022746 -0.40928,7.530806 -0.33486,4.918509 -1.22837,9.712049 -3.4463,14.176396 -0.63041,1.270299 -1.33015,2.46911 -2.76314,3.03444 -2.88223,1.136084 -5.70609,2.437519 -8.63307,3.438033 -4.89818,1.674299 -9.59027,3.698105 -13.71027,6.896219 -0.19658,0.151839 -0.46243,0.217249 -1.00201,0.459919 0.6399,-0.932725 1.08618,-1.563137 1.51051,-2.207098 2.51077,-3.805473 5.16093,-7.528597 7.47241,-11.452016 1.58754,-2.695146 2.70055,-5.670711 4.02508,-8.520409 0.17353,0.452806 0.25628,1.226908 0.53691,1.306896 3.39876,0.969333 6.96586,-1.800399 7.07296,-5.407937 -3.34182,-0.65074 -5.86065,0.433572 -7.43056,3.519164 0.33622,-3.179135 0.69678,-6.355556 1.00046,-9.5374 0.21691,-2.269456 0.21131,-4.569843 0.57464,-6.813539 0.30368,-1.873588 0.99906,-3.684795 1.59422,-5.782076 z m 18.8805,39.350053 c 0.0106,-0.01076 0.0214,-0.01911 0.032,-0.02997 1.71002,-1.156893 3.0355,-2.582314 3.4215,-4.704625 -4.3586,-1.499412 -7.79517,0.413068 -8.17883,4.543909 1.55228,0.856809 3.16257,0.376849 4.76095,0.154514 0,0 -0.0474,0.03681 -0.0444,0.0341 0.01,-0.0065 0.0192,-0.01309 0.0289,-0.01964 l -0.0289,0.02222 c 0.003,-3.54e-4 0.006,-1.64e-4 0.009,-5.16e-4 z m 27.8908,17.414441 c 0.22059,-0.38549 0.42527,-0.781693 0.67077,-1.149284 1.84918,-2.771068 1.29175,-6.125257 -1.71928,-8.512659 -0.72123,1.652606 -1.60648,3.154704 -2.02675,4.777486 -0.53243,2.054032 1.04309,4.308719 3.07526,4.884457 z m 5.78053,11.699544 c 0.0981,-0.136017 0.18091,-0.29033 0.30851,-0.386024 2.53658,-1.893925 3.24991,-3.953095 2.44326,-7.091556 -4.95004,1.114391 -6.80573,4.544243 -4.95112,7.963337 0.72812,-0.16016 1.46448,-0.322906 2.19935,-0.485757 z m -23.08438,28.792013 c 4.281,-1.10444 6.09876,-4.20991 4.75733,-8.3504 -2.09322,0.85409 -4.27,1.71525 -4.89634,4.08502 -0.34845,1.3174 0.0589,2.8347 0.13901,4.26538 z m 42.7483,-8.43721 c -1.02226,3.799 2.01575,7.55293 5.90145,7.27345 0.71148,-4.40008 -1.34103,-6.92938 -5.90145,-7.27345 z M 36.628902,94.177858 c 0.38327,0.30363 0.76551,0.60501 1.13585,0.8971 3.31335,-2.402311 3.69603,-6.565487 0.84905,-9.305372 -1.96849,1.801736 -3.28631,3.832442 -2.5244,6.663158 0.15926,0.588457 0.35848,1.163466 0.5395,1.745114 z m 33.75918,-31.372245 c 0.81649,-4.180869 -1.70722,-7.619399 -5.60276,-7.631575 -0.75784,3.675324 0.96012,6.447916 4.52428,7.310149 0.36301,0.08808 0.71955,0.212796 1.07848,0.321426 z m 7.26416,21.917009 c 0.54604,-0.457706 1.12045,-0.883865 1.63918,-1.368909 2.27216,-2.127107 2.48401,-5.722464 0.49247,-8.043437 -2.51619,1.685145 -3.75413,3.687792 -3.36775,5.935554 0.20507,1.194231 0.80588,2.32078 1.2361,3.476792 z M 151.02347,25.039444 c -4.29488,1.046607 -6.15783,4.322005 -4.63537,8.021732 3.94105,-0.671075 5.8528,-4.334207 4.63537,-8.021732 z m -26.96115,0.905887 c -3.51691,0.02529 -6.03823,2.588008 -5.81463,6.154663 3.69159,0.832406 6.91302,-1.991756 6.93602,-6.079215 -0.38321,-0.05338 -0.75756,-0.07806 -1.12139,-0.07545 z M 72.980692,26.71221 c -0.54093,4.259634 1.9101,7.21259 5.87148,7.072954 0.74428,-3.105928 -1.24716,-6.765208 -5.87148,-7.072954 z m 12.15275,0.05581 c -3.64686,1.40858 -4.96066,4.065409 -4.15944,7.287929 0.33893,1.367906 0.58429,1.525198 1.82883,0.81752 2.83885,-1.614649 3.77986,-4.797522 2.33061,-8.105449 z m 10.60297,2.686658 c -4.15389,1.014069 -5.96641,4.284371 -4.60799,8.135937 3.71464,-0.378243 5.5963,-3.653967 4.60799,-8.135937 z m 60.977148,0.257865 c -2.85241,3.001538 -2.57085,6.71077 0.79944,9.350333 2.79412,-3.382489 2.43934,-7.255764 -0.79944,-9.350333 z m -16.2698,0.318327 c -1.87902,3.771579 -0.47885,7.255914 3.4649,8.617044 1.67159,-3.976291 0.28092,-7.436223 -3.4649,-8.617044 z m -14.29629,0.06563 c -0.22435,0.0018 -0.45173,0.01801 -0.68161,0.04961 -0.44467,4.057634 2.13346,7.011892 6.09213,6.870899 0.61261,-3.718878 -2.04524,-6.948057 -5.41052,-6.920508 z m -20.88451,0.977718 c -1.0479,-0.0088 -2.20016,0.255559 -3.45716,0.7953 2.04712,4.126775 5.656,5.405286 8.85683,3.204972 -1.29462,-2.639562 -3.0943,-3.980954 -5.39967,-4.000272 z M 60.159252,33.15833 c -0.11969,-0.0012 -0.24054,7.27e-4 -0.36277,0.0057 -0.45416,4.102372 1.95522,6.969757 5.97897,7.021277 0.55685,-4.000439 -1.90588,-6.988345 -5.6162,-7.02696 z m 11.94862,1.538922 c -3.29708,2.384692 -3.71479,6.48449 -0.91932,9.012888 3.26048,-2.025427 3.67955,-6.141497 0.91932,-9.012888 z m 91.588728,1.839682 c -4.35725,0.844606 -6.98738,4.483275 -4.70979,8.028451 3.95324,-0.744284 5.78351,-3.863716 4.70979,-8.028451 z m -66.331868,0.237194 c -4.13626,1.550932 -5.5829,4.347676 -4.23126,8.309054 4.1227,-1.050673 6.13196,-5.077044 4.23126,-8.309054 z m 27.892358,0.426331 c -0.70222,0.0082 -1.42168,0.13452 -2.13114,0.395325 1.2703,4.289459 3.8705,5.844315 8.02845,4.801774 -0.13878,-3.051191 -2.85437,-5.232468 -5.89731,-5.197099 z m 10.85773,0.205155 c -0.16429,-8.2e-5 -0.33178,0.0065 -0.50178,0.01964 -0.51517,4.04001 1.86945,6.819029 6.03013,6.932911 0.80249,-3.0315 -1.48674,-6.950535 -5.52835,-6.952549 z m 13.76557,1.131197 c 0,0.577533 -0.0213,1.149361 0.003,1.71876 0.15048,3.421806 1.82452,5.375775 4.81521,5.713346 0.94493,0.107101 1.2935,-0.183382 1.3193,-1.162203 0.0908,-3.560091 -2.28605,-6.082813 -6.13761,-6.269903 z m -43.86968,2.059305 c -0.89884,-0.01134 -1.82722,0.205312 -2.73109,0.674897 1.65803,4.18778 4.58611,5.663152 8.36176,4.121711 -0.88708,-2.990774 -3.14562,-4.765265 -5.63067,-4.796608 z m -42.000528,2.032953 c -1.57771,-0.01171 -3.19668,0.68594 -4.67879,2.099095 2.6111,3.230653 6.69878,3.379724 9.36274,0.341583 -1.37151,-1.61198 -3.00446,-2.428211 -4.68395,-2.440678 z m 114.716508,0.301789 c -3.70307,0.04387 -6.27752,2.475153 -6.00222,5.874062 3.8841,0.879853 6.7321,-1.307013 7.41402,-5.779492 -0.48562,-0.06925 -0.95704,-0.09996 -1.4118,-0.09457 z m -12.37444,0.193788 c -2.74531,2.795469 -2.59051,7.270557 0.86248,9.259383 2.99476,-3.188626 2.13499,-7.126857 -0.86248,-9.259383 z M 52.107032,43.395429 c -1.79089,4.038656 -0.66298,7.455294 2.8944,8.768974 2.24234,-3.160154 0.65213,-7.978595 -2.8944,-8.768974 z m 34.35656,1.847432 c -1.06357,-0.01073 -2.24503,0.254519 -3.54397,0.79892 1.94137,4.45621 6.02848,5.115256 8.83615,3.252512 -1.18464,-2.667524 -2.95233,-4.027821 -5.29218,-4.051432 z m -43.07696,0.414446 c -0.81173,6.69e-4 -1.66895,0.144002 -2.54558,0.444418 1.68108,4.39656 4.53599,5.859396 8.31164,4.320667 -0.54864,-2.952901 -2.86702,-4.767477 -5.76606,-4.765085 z m 104.299058,0.451136 c -0.81614,4.602628 1.68901,7.859199 5.69785,7.403682 1.10082,-3.652277 -1.57108,-7.125761 -5.69785,-7.403682 z m -47.769688,0.825788 c -3.373,2.570422 -3.76875,6.229297 -0.99633,9.233546 3.324198,-1.967133 3.821628,-6.581781 0.99633,-9.233546 z m 4.624518,0.56224 c -1.82478,3.233364 -0.61172,7.681782 3.4432,8.586041 1.71768,-3.714642 0.25924,-7.352348 -3.4432,-8.586041 z m -37.719658,0.489894 c -1.95859,0.01748 -3.80046,1.035373 -5.0059,2.957957 3.36216,2.604315 6.83145,2.121657 9.27851,-1.361157 -1.35207,-1.089543 -2.84337,-1.609561 -4.27261,-1.5968 z m 109.710618,2.174026 c -1.62084,-0.0019 -3.2091,0.817443 -4.46071,2.476852 3.01103,3.18049 6.7228,3.2704 9.38133,0.29869 -1.43302,-1.840566 -3.19521,-2.773552 -4.92062,-2.775542 z m -57.24561,0.416512 c -1.80079,0.01505 -3.48686,0.951106 -4.69015,2.773474 2.48908,2.822585 6.74567,2.409018 9.19272,-0.893485 -1.43993,-1.272841 -3.01048,-1.892461 -4.50257,-1.879989 z m 24.50445,0.654225 c -2.02848,0.0073 -3.70177,1.136131 -5.01003,3.401859 3.32013,2.476878 7.72053,1.370613 9.04234,-2.207101 -1.47026,-0.799698 -2.81522,-1.199134 -4.03231,-1.194758 z m -94.434028,0.845426 c -2.12487,0.02874 -4.00343,1.281604 -5.27926,3.658692 3.19811,2.028137 7.30709,1.541561 9.02477,-2.533697 -1.28428,-0.771737 -2.5535,-1.141119 -3.74551,-1.124995 z m 40.35775,1.866553 c -1.37922,0.01257 -2.80256,0.532738 -4.04782,1.5968 2.1976,3.492304 6.2972,4.160705 9.11572,1.487249 -1.13096,-2.036527 -3.05213,-3.102424 -5.0679,-3.084049 z m 79.678338,1.684134 c -1.64841,0.02318 -3.10372,0.878789 -3.9331,2.563151 2.77784,3.051699 6.25086,3.149298 9.32967,0.197921 -1.66861,-1.867127 -3.64182,-2.785753 -5.39657,-2.761072 z M 55.812752,57.956298 c -2.01094,-0.0066 -4.06359,1.150713 -5.50354,3.3631 3.76073,2.364356 7.36448,1.598303 9.14724,-1.887222 -1.08245,-0.989243 -2.35464,-1.471666 -3.6437,-1.475878 z m 140.769178,2.075325 c -3.91098,0.04456 -6.25931,2.409529 -5.68699,6.055961 4.18778,0.460941 7.08748,-1.97839 7.19594,-5.965529 -0.52491,-0.06643 -1.02865,-0.09591 -1.50895,-0.09043 z m -11.81736,0.102836 c -3.7743,3.084235 -4.18516,6.563106 -1.01958,9.315193 3.47196,-2.76429 3.89232,-6.861362 1.01958,-9.315193 z m -21.89118,0.168982 c -0.68401,-0.0024 -1.40215,0.152513 -2.16317,0.452167 -1.05474,0.416203 -1.13606,0.96121 -0.61547,1.88309 1.66752,2.952731 4.78547,3.947755 8.45944,2.411741 -0.74835,-1.069655 -1.31788,-2.083703 -2.07843,-2.926954 -1.11567,-1.237548 -2.29653,-1.815414 -3.60237,-1.820044 z m -71.611648,0.935344 c -1.32798,0.01608 -2.74369,0.482097 -4.07313,1.546159 2.84427,3.611605 6.69866,4.193275 9.17825,1.437121 -0.92188,-1.786993 -2.8918,-3.010077 -5.10512,-2.98328 z m -64.70044,0.109037 c -1.39773,3.706506 0.58302,7.132595 4.72064,8.044987 1.3652,-3.748532 -0.60606,-7.047187 -4.72064,-8.044987 z m 50.83928,3.783748 c -4.12949,2.13795 -5.25916,5.409539 -3.13883,8.895064 3.80547,-1.713616 4.92294,-4.818451 3.13883,-8.895064 z m 50.474428,0.181901 c -1.7326,3.654986 0.005,7.605596 3.72536,8.465116 1.96849,-4.130841 0.22246,-8.339036 -3.72536,-8.465116 z m -91.050768,0.406694 c -2.85512,3.152021 -2.48389,7.201241 0.80099,9.290389 2.78191,-2.745309 2.48932,-6.492209 -0.80099,-9.290389 z m 82.012048,0.322977 c -1.25577,-0.0189 -2.44257,0.537355 -3.36879,1.715656 1.83698,3.58856 5.26668,4.531027 9.02064,2.399856 -1.56635,-2.656023 -3.69285,-4.086035 -5.65185,-4.115512 z m -59.331778,2.186429 c -1.29159,-0.01657 -2.62594,0.402979 -3.80235,1.306896 2.01865,3.660413 5.95297,4.617665 8.9762,2.182813 -0.98713,-2.22336 -3.0212,-3.462092 -5.17385,-3.489709 z m 94.735818,0.315743 c -1.2127,0.0061 -2.4282,0.51807 -3.52175,1.569929 1.56584,3.65228 5.73341,4.791229 8.98033,2.456699 -1.42434,-2.641936 -3.43741,-4.036862 -5.45858,-4.026628 z M 45.505882,69.781932 c -3.57907,2.053897 -4.33141,5.475443 -1.96164,9.207706 3.6699,-2.451121 4.40598,-6.035349 1.96164,-9.207706 z m 42.13955,0.838708 c -0.0882,-1.99e-4 -0.17675,0.0024 -0.26562,0.0072 -0.74293,4.003405 1.22663,6.714572 5.43068,7.472412 1.53047,-3.189356 -1.49107,-7.471338 -5.16506,-7.479646 z M 193.3904,70.66973 c -4.1745,0.04189 -6.76571,2.422824 -6.05958,6.040975 3.67126,0.915104 7.13238,-1.946585 7.15408,-6.000152 -0.37547,-0.03071 -0.74074,-0.04437 -1.0945,-0.04082 z m -84.63773,0.522968 c -0.90669,-0.0032 -1.82821,0.251288 -2.71043,0.781349 -0.82021,0.49212 -0.94191,0.920237 -0.34675,1.707904 2.20844,2.922908 5.02301,3.503269 8.53023,1.628325 -1.26113,-2.657612 -3.32565,-4.110027 -5.47305,-4.117578 z M 28.927052,71.96526 c -1.58465,0.01898 -3.18536,0.78431 -4.71393,2.302703 2.58941,2.916127 6.90063,3.29397 9.33277,-0.12919 -1.46552,-1.465522 -3.03419,-2.192491 -4.61884,-2.173513 z m 98.511298,0.110072 c -4.58907,0.4162 -7.11615,4.204063 -5.23173,7.697722 4.00206,-0.55313 6.11565,-3.615685 5.23173,-7.697722 z m -74.598028,0.188619 c -2.09999,3.931552 -1.19993,7.295089 2.41845,9.037174 2.65855,-3.484168 0.80678,-7.621814 -2.41845,-9.037174 z m 64.787768,2.032434 c -0.5328,0.581599 -1.00426,1.068324 -1.44487,1.580782 -1.99831,2.329106 -2.13945,5.09579 -0.48007,7.144266 0.72395,0.893411 1.23768,0.787882 1.96163,0.03411 2.44163,-2.547376 2.5039,-5.681699 -0.0367,-8.759155 z m -58.638278,1.008724 c -0.52737,4.228452 2.42266,7.453249 6.1495,6.83369 0.50025,-3.829873 -2.01323,-6.661515 -6.1495,-6.83369 z m 93.733818,2.296501 c -4.21897,2.342663 -5.19122,5.682877 -2.54352,9.009785 3.61296,-1.518394 5.01904,-5.909281 2.54352,-9.009785 z m -68.372568,0.333312 c -0.37825,4.259635 2.46214,7.311607 6.23372,6.824906 0.51516,-3.913929 -1.88326,-6.572742 -6.23372,-6.824906 z m -49.08176,0.233577 c -1.92061,0.0067 -3.82007,1.048062 -5.19245,3.062345 3.85428,2.592115 7.33555,2.040356 9.23354,-1.400431 -1.2268,-1.120429 -2.63957,-1.666775 -4.04109,-1.661914 z m 75.921978,1.130165 c -3.93291,2.768353 -4.38305,6.969913 -1.05885,9.25835 3.30793,-2.386047 3.76484,-6.126665 1.05885,-9.25835 z m 34.1452,0.604096 c -3.22034,0.01628 -5.45465,2.189705 -5.45548,5.688026 4.19049,0.864941 7.41276,-1.477809 7.5768,-5.412073 -0.74215,-0.189905 -1.45295,-0.279331 -2.12132,-0.275953 z M 20.528602,80.243308 c -0.95923,0.0028 -1.97874,0.244547 -3.02463,0.737939 1.73531,4.105084 4.96323,5.516113 8.62635,3.717086 -1.09329,-2.908628 -3.15037,-4.462282 -5.60172,-4.455025 z m 173.841578,1.743046 c -3.56858,0.01735 -5.85034,2.336863 -5.61309,6.021337 3.89088,0.84732 7.13494,-1.839478 7.21764,-5.88491 -0.55872,-0.09422 -1.09475,-0.138906 -1.60455,-0.136427 z m -70.2076,0.208772 c -1.533,0.01618 -3.0109,0.789117 -4.2876,2.33526 2.78328,3.297082 6.37167,3.458255 9.49658,0.502812 -1.66371,-1.902823 -3.47158,-2.856405 -5.20898,-2.838072 z m 54.82869,0.689364 c -0.77526,-0.0063 -1.60178,0.149918 -2.45618,0.482658 0.33622,3.778359 3.45595,6.161699 7.76439,5.166612 -0.42154,-3.531196 -2.5394,-5.626757 -5.30821,-5.64927 z m -77.02113,1.02371 c -3.137118,3.68617 -2.799888,7.395511 0.84697,9.315196 2.85376,-2.749375 2.46095,-7.063364 -0.84697,-9.315196 z m -45.575518,1.315683 c -2.5166,0.01276 -4.83192,1.7727 -5.6503,4.707723 4.34233,1.294702 7.55572,-0.265948 8.39897,-4.009059 -0.90171,-0.479666 -1.83841,-0.703281 -2.74867,-0.698664 z m -30.88493,1.126545 c -2.14048,-0.01078 -4.17421,1.160272 -5.15318,3.305742 3.44486,2.384689 6.60891,1.795205 9.15087,-1.773018 -1.20955,-1.033198 -2.62559,-1.525813 -3.99769,-1.532724 z m 18.23041,0.766879 c -0.75952,0.0042 -1.54307,0.146331 -2.32027,0.441833 1.04118,3.698373 3.36744,5.276154 7.01972,4.93045 1.12389,-0.105746 1.272,-0.552794 0.91003,-1.516703 -0.90407,-2.409116 -3.12839,-3.869267 -5.60948,-3.85558 z M 161.51224,87.262 c -0.42813,-0.0025 -0.86595,0.05212 -1.3131,0.165365 -0.22234,0.02169 -0.4448,0.04342 -0.66714,0.06511 -0.57346,0.418914 -1.14562,0.836885 -1.70687,1.249018 1.98203,3.840721 5.83784,4.87789 9.06714,2.502691 -1.48645,-2.621494 -3.31722,-3.970205 -5.38003,-3.982188 z m -42.23463,0.114207 c -1.46774,-0.0024 -2.90121,0.699064 -4.13412,2.128552 2.39147,3.435363 6.54528,3.809235 9.30279,0.912088 -1.57622,-2.009942 -3.39727,-3.037737 -5.16867,-3.04064 z m 82.95565,0.916223 c -3.79303,-0.0126 -6.64249,2.807999 -5.78,6.085928 3.31742,0.64261 6.93848,-1.641862 6.98458,-5.988259 -0.4095,-0.06457 -0.81219,-0.09637 -1.20458,-0.09767 z m -9.14621,0.797367 c -1.08862,0.634471 -2.21266,1.183616 -3.21995,1.898076 -1.83834,1.302835 -2.46295,3.591185 -1.54513,5.662705 0.1559,0.34841 0.87547,0.74674 1.22525,0.66404 3.29301,-0.78225 5.11381,-4.858598 3.53983,-8.224821 z m -13.10721,2.77399 c -1.17833,0.0064 -2.38913,0.49176 -3.50573,1.619541 2.1244,3.75396 5.83351,4.73305 9.01806,2.44326 -1.13168,-2.341647 -3.26279,-4.07511 -5.51233,-4.062801 z m -150.455928,0.02429 c -1.43695,0.01874 -2.90486,0.603959 -4.15168,1.783871 2.65312,3.39334 5.84047,3.85282 9.23923,1.25935 -1.20701,-2.03074 -3.11839,-3.068902 -5.08755,-3.043221 z m 36.14405,0 c -3.32962,2.017294 -3.69937,6.232161 -0.81442,9.274373 3.2781,-2.207102 3.59769,-5.839012 0.81442,-9.274373 z m -13.68806,2.371431 c -1.62999,6e-4 -3.26881,0.69777 -4.46225,2.11046 2.84969,3.15067 5.9489,3.35247 9.31106,0.54209 -1.16532,-1.7595 -3.00147,-2.65323 -4.84881,-2.65255 z m 95.540938,0.55139 c -2.99342,0.0227 -5.83795,1.89899 -5.4069,5.456512 3.76344,1.15642 7.37196,-1.247352 7.67292,-5.109772 -0.73058,-0.23792 -1.50299,-0.35253 -2.26602,-0.34674 z m -125.767508,0.88625 c -0.24512,3e-5 -0.49539,0.012 -0.75035,0.0357 0.10033,4.369452 3.10053,7.098132 6.84093,6.305052 0.10676,-3.735402 -2.41383,-6.341232 -6.09058,-6.340702 z m 150.014098,0.34933 c -1.52563,0.002 -2.90128,0.76277 -3.75947,2.30529 2.68024,3.221162 6.04212,3.589892 9.2904,0.96118 -1.63035,-2.16638 -3.68967,-3.26894 -5.53093,-3.26647 z m -128.220598,0.55242 c -2.25997,4.130842 -1.48296,7.464452 2.07171,9.187552 2.39553,-3.2903 1.59141,-6.975032 -2.07171,-9.187552 z m 150.009958,1.17047 c -1.28891,-0.008 -2.57632,0.49956 -3.62717,1.58854 2.12982,3.703792 5.60566,4.655202 8.99222,2.460312 -1.06508,-2.586012 -3.21686,-4.034712 -5.36505,-4.048852 z m -123.195058,0.21911 c -3.41503,2.769712 -3.7472,6.497782 -0.91106,9.320362 3.3364,-2.34402 3.7106,-5.94736 0.91106,-9.320362 z m 37.893288,0.69815 c -4.71924,0.82969 -7.00349,4.723422 -4.79505,8.019152 3.99392,-0.93002 5.67355,-3.69444 4.79505,-8.019152 z m 78.56007,2.780192 c -0.83915,-0.003 -1.71549,0.26031 -2.59416,0.81236 0.61142,3.96273 4.11983,6.17536 7.9375,4.92269 -0.99062,-3.67077 -3.02336,-5.72548 -5.34334,-5.73505 z m -132.559348,0.76223 c -3.37843,2.3291 -3.86923,6.01694 -1.15239,9.29504 3.33504,-2.32368 3.81228,-6.36807 1.15239,-9.29504 z m -34.06304,0.46405 c -2.07129,-0.003 -3.9365,1.12046 -5.04931,3.24115 3.35809,2.46468 6.98483,1.77323 9.14312,-1.81126 -1.35359,-0.96277 -2.76606,-1.4278 -4.09381,-1.42989 z m 117.015078,0.50798 c -0.68257,-0.005 -1.37441,0.14838 -2.0743,0.46096 -0.003,4.00882 3.81611,6.70818 7.21352,5.72936 0.11795,-1.959 -1.02758,-4.40321 -2.55953,-5.37797 -0.84037,-0.53533 -1.70211,-0.80551 -2.57969,-0.81235 z m 60.95235,0.67128 c -3.85699,0.55855 -7.13399,3.5478 -5.15059,7.75457 4.11729,-0.5789 6.48596,-4.20397 5.15059,-7.75457 z m -48.53244,1.11879 c -0.66525,0.011 -1.3404,0.17726 -1.99057,0.51212 -0.0393,3.82174 3.35376,6.51123 7.25278,5.74797 -0.19553,-3.95401 -2.65239,-6.30302 -5.26221,-6.26009 z m -120.745078,0.0899 c -3.6488,0.02 -6.05854,2.54378 -6.10247,6.53655 3.90986,0.50974 7.44552,-2.74133 6.64972,-6.52105 -0.18531,-0.0113 -0.3678,-0.0165 -0.54725,-0.0155 z m 6.44612,1.15704 c -3.91258,0.0149 -6.35709,2.94185 -5.88802,7.1825 4.25693,-0.23047 6.70415,-3.2523 5.88802,-7.1825 z m 123.992938,0.34726 c -0.0601,-1e-4 -0.12042,7.4e-4 -0.18138,0.003 -1.68108,3.3825 0.81302,7.68004 4.34599,8.24808 1.57741,-4.40927 -0.38132,-8.24439 -4.16461,-8.25066 z m -37.66798,1.54978 c -0.9824,0.006 -1.96163,0.3669 -2.90267,1.02577 -0.7619,0.5328 -0.88419,0.96545 -0.24701,1.73685 2.23014,2.70057 5.29944,3.12501 8.95036,0.84336 -1.25132,-1.07101 -2.27192,-2.19791 -3.51917,-2.94762 -0.75148,-0.45256 -1.51742,-0.66289 -2.28151,-0.65836 z m 63.61369,0.1297 c -3.73498,0.44468 -6.11001,3.79887 -5.08238,7.07968 0.3091,0.98967 0.71002,1.20517 1.67122,0.79168 3.23066,-1.38825 4.53368,-4.3316 3.41116,-7.87136 z m -122.028208,1.22474 c -1.68504,0.011 -3.32802,0.7589 -4.5651,2.17816 2.71548,3.20484 6.50712,3.22396 9.49916,0.0475 -0.21962,-0.25758 -0.43925,-0.51653 -0.65887,-0.77411 -0.42569,-0.22098 -0.85782,-0.42828 -1.27538,-0.66146 -0.96238,-0.53788 -1.98879,-0.79677 -2.99981,-0.79013 z m 137.244848,0.33176 c -1.69582,0.004 -3.24326,0.87633 -4.19768,2.61638 2.5528,3.03678 6.71363,3.02728 9.28677,-0.0217 -1.54889,-1.73394 -3.39327,-2.59857 -5.08909,-2.59467 z m -158.931898,0.97823 c -2.48374,0.002 -4.58541,1.60079 -5.43171,3.73518 2.60703,1.88173 7.05122,1.63259 8.97361,-2.64739 -1.20488,-0.75919 -2.41293,-1.08856 -3.5419,-1.08779 z m 98.826518,5.39864 c -0.61956,0.061 -1.15243,0.091 -1.67845,0.16692 -3.24692,0.47449 -5.14631,2.73844 -4.90771,5.77794 0.0637,0.8202 0.22933,1.2001 1.22577,1.05368 3.52078,-0.51517 5.6817,-3.21747 5.36039,-6.99854 z m 46.10262,1.75132 c -1.16903,10e-4 -2.35175,0.49939 -3.40496,1.6831 1.63091,3.62516 5.58982,4.69488 8.95604,2.42 -1.13702,-2.29893 -3.3193,-4.10583 -5.55108,-4.1031 z m -66.80471,1.05471 c -2.78286,-0.0266 -5.39274,1.87991 -5.74384,5.11442 3.26725,1.62414 7.062,-0.64551 7.87136,-4.70721 -0.69726,-0.26794 -1.41816,-0.40043 -2.12752,-0.40721 z m -78.697518,0.70022 c -1.18373,-0.006 -2.38376,0.36391 -3.42719,1.15755 1.70006,3.65364 5.46942,4.81826 8.83564,2.66134 -0.94662,-2.4244 -3.14861,-3.80721 -5.40845,-3.81889 z m 138.588948,2.10168 c -0.76854,0.0154 -1.5974,0.22833 -2.47581,0.67851 0.36739,3.8963 3.93745,6.15761 7.94628,4.91443 -0.74669,-3.18274 -2.72569,-5.64798 -5.47047,-5.59294 z m -30.62603,0.39326 0.003,0.002 c -8.6e-4,4e-5 -0.002,-4e-5 -0.003,0 -4e-5,-6.9e-4 -4.9e-4,-0.001 -5.2e-4,-0.002 z m -83.233168,0.0455 c -3.98578,1.71225 -5.38766,5.24105 -3.52898,8.69404 3.90037,-1.43841 5.28056,-4.77334 3.52898,-8.69404 z m -47.88648,1.1498 c -1.49535,3.74039 0.7293,7.6581 4.49275,8.06618 1.40858,-3.61161 -0.54493,-7.17142 -4.49275,-8.06618 z m 10.06657,1.57097 c -1.07257,0.008 -2.2208,0.30677 -3.39773,0.9126 2.07153,4.01832 5.59901,5.19364 8.8744,3.04891 -1.12405,-2.59576 -3.11703,-3.97996 -5.47667,-3.96151 z m 56.19657,0.72812 c -4.39927,1.11303 -5.06487,5.81462 -3.53157,8.54366 3.93969,-1.43434 5.48108,-5.16525 3.53157,-8.54366 z m 60.004608,1.27744 c -0.48823,0.004 -0.9937,0.0741 -1.50844,0.2098 -0.90565,0.2386 -1.03172,0.68989 -0.80667,1.47485 0.95035,3.31064 4.37054,5.09208 7.99435,3.90312 -0.59923,-1.22014 -1.04621,-2.40641 -1.72135,-3.44217 -0.95181,-1.46039 -2.36304,-2.15829 -3.95789,-2.1456 z m 48.55362,0.2992 c -4.68668,0.343 -7.35177,3.80559 -5.64358,7.32772 3.5262,0.13421 6.67392,-3.45853 5.64358,-7.32772 z M 11.739982,127.4177 c -1.01924,0.005 -2.0839804,0.29197 -3.1119504,0.93483 1.4411204,3.77836 4.8766104,5.09887 8.6671704,3.2551 -0.64214,-2.38442 -2.95047,-4.20395 -5.55522,-4.18993 z m 150.390818,1.39836 c -0.1741,-0.002 -0.35239,0.004 -0.53433,0.0191 -1.25946,3.78378 0.72146,7.26084 4.65708,8.01191 1.30121,-4.48121 -0.58254,-7.98584 -4.12275,-8.03104 z m -93.423228,3.06804 c -3.45164,2.00238 -4.07269,5.60146 -1.54565,9.23612 3.5723,-2.54601 4.15538,-6.22374 1.54565,-9.23612 z m -36.87941,0.9374 c -1.34148,0.004 -2.72521,0.47688 -3.92999,1.46348 1.91697,3.50586 6.04617,4.31904 9.05991,1.78387 -1.04754,-2.11573 -3.03719,-3.25297 -5.12992,-3.24735 z m -12.41371,0.0295 c -2.96167,-0.0368 -5.30158,2.27955 -5.70766,5.8782 4.2149,0.60871 6.82725,-1.33983 7.40885,-5.60896 -0.58274,-0.17497 -1.15273,-0.26243 -1.70119,-0.26924 z m 74.74117,0.0207 c -1.51438,-0.0185 -3.10221,0.62687 -4.62865,1.95441 3.13575,3.33232 7.04023,3.57331 9.3002,0.6382 -1.33313,-1.69828 -2.95524,-2.57162 -4.67155,-2.59261 z m -67.31113,0.11576 c -3.95867,-0.019 -6.53426,2.92296 -6.03943,6.99957 4.2027,-0.0637 7.02096,-3.38525 6.03943,-6.99957 z m 29.86639,1.72547 c -1.6082,-0.005 -3.27281,0.74995 -4.82916,2.27377 3.25641,3.15153 7.2114,3.12743 9.32088,0.009 -1.33131,-1.51408 -2.88351,-2.27838 -4.49172,-2.28307 z m -17.55655,3.84525 c -3.64007,2.02678 -4.60225,6.3219 -2.09961,9.07128 3.65092,-2.37249 4.48972,-5.87588 2.09961,-9.07128 z m 14.58102,0.80873 c -1.66819,-0.007 -3.35056,0.75156 -4.71237,2.2686 2.80089,3.1222 6.62109,3.17923 9.33793,0.0584 -1.30351,-1.54686 -2.95736,-2.31987 -4.62556,-2.32699 z m 9.66608,0.0522 c -3.33233,2.22065 -3.93681,5.81848 -1.47485,9.19013 3.62517,-2.35622 4.28794,-6.68749 1.47485,-9.19013 z m 121.946558,0.0636 c -1.24269,-0.001 -2.49874,0.50684 -3.60805,1.56734 1.50348,3.63059 5.862,4.83197 8.96793,2.47169 -1.25487,-2.62245 -3.28873,-4.03738 -5.35988,-4.03903 z m -39.6999,0.75396 c -3.0639,0.92459 -5.12477,5.2534 -2.51096,8.94364 4.15795,-2.11897 5.23729,-5.9638 2.51096,-8.94364 z m -112.286688,1.58491 c -3.28623,1.67701 -4.59454,5.68026 -2.06344,9.05733 3.68889,-2.18811 4.64878,-6.40014 2.06344,-9.05733 z m 38.15685,0.4806 c -0.66117,0.002 -1.36016,0.0892 -2.0867,0.26768 0.39587,3.86783 4.00214,6.11557 7.82795,4.88187 -0.25036,-3.19856 -2.55562,-5.15969 -5.74125,-5.14955 z m 56.176408,0.003 c -1.12937,5.6e-4 -2.24339,0.45264 -3.18895,1.40612 1.75971,3.82852 4.87003,4.97557 8.76225,3.17655 -1.20463,-2.93951 -3.41722,-4.58374 -5.5733,-4.58267 z m -102.620088,0.84646 c -2.8938,-0.016 -5.32832,1.87998 -5.88543,4.93562 3.26319,1.48314 5.79304,0.14114 8.39329,-4.45606 -0.85113,-0.32088 -1.69759,-0.47507 -2.50786,-0.47956 z m 167.727228,2.37505 c -1.19617,0.0204 -2.4164,0.55158 -3.51761,1.82057 1.9617,3.50179 5.49347,4.33005 9.11727,2.06602 -1.11922,-2.10321 -3.31607,-3.92556 -5.59966,-3.88659 z m -139.147058,0.17622 c -2.90198,-0.0147 -5.13251,1.96752 -5.84409,5.38882 2.52026,0.62769 4.74106,0.16548 6.60787,-1.72031 2.43485,4.45079 4.55227,5.57838 8.22895,4.33927 -1.08185,-3.94647 -3.63475,-5.59321 -7.63003,-5.07669 0.28064,-0.97747 0.51264,-1.78854 0.74311,-2.59519 -0.73081,-0.22293 -1.43612,-0.33251 -2.10581,-0.3359 z M 184.39766,148.187 c -0.45276,0.008 -0.92583,0.0731 -1.4149,0.19998 -0.36469,3.97088 2.37555,6.77329 6.50503,6.71639 0.25624,-4.20287 -1.92082,-6.97046 -5.09013,-6.91637 z m -145.171498,0.0878 c -0.18154,0.002 -0.36519,0.0114 -0.55139,0.0279 -0.15319,3.91393 2.61638,7.20984 6.67401,6.45335 0.24939,-3.70979 -2.43136,-6.52912 -6.12262,-6.48126 z m 109.975198,0.0279 c -3.66448,2.01865 -4.57978,5.36876 -2.42827,9.13898 4.30572,-2.56093 5.28881,-6.36249 2.42827,-9.13898 z m 27.49755,0.29921 c -0.0673,8.2e-4 -0.13509,0.003 -0.20309,0.006 -0.93951,0.0434 -1.25139,0.38105 -1.12396,1.35444 0.46637,3.55738 2.28044,5.22719 6.82749,5.77897 -0.33079,-1.48586 -0.48964,-2.82096 -0.93431,-4.05195 -0.73942,-2.0475 -2.47984,-3.11308 -4.56613,-3.08766 z m -11.31094,1.96215 c -0.24826,-0.002 -0.49128,0.13899 -0.76378,0.49351 -2.15151,2.80224 -1.51993,6.77735 1.56838,8.82582 0.49076,-0.82698 1.07612,-1.60668 1.44487,-2.4784 1.13338,-2.67617 0.57513,-4.9575 -1.45572,-6.47454 -0.29216,-0.21895 -0.54549,-0.36436 -0.79375,-0.36639 z m -80.852428,0.34727 c -3.1954,2.54737 -3.44502,6.59577 -0.50178,9.31261 3.27268,-2.98663 3.4396,-6.56459 0.50178,-9.31261 z m -63.79145,0.71623 c -1.49779,0.004 -2.98772,0.5868 -4.12533,1.78491 2.47281,3.37571 6.52508,3.81218 9.20667,0.9896 -1.21709,-1.82868 -3.15562,-2.77977 -5.08134,-2.77451 z m 120.715618,2.38229 c -3.95921,0.0163 -6.24158,2.19086 -5.79241,5.77329 4.2176,0.92053 7.38484,-2.11071 7.32514,-5.68028 -0.53485,-0.0645 -1.04651,-0.095 -1.53273,-0.093 z m -66.014048,1.187 c -3.64957,1.35435 -4.91748,5.63146 -2.62362,8.84856 3.41503,-1.59432 5.06389,-5.49047 2.62362,-8.84856 z m -46.7155,0.47336 c -2.84606,-2.9e-4 -4.87482,1.70876 -5.70559,4.90978 3.26454,1.42756 7.73691,-0.37777 8.03517,-4.57233 -0.82531,-0.22582 -1.60411,-0.33737 -2.32958,-0.33745 z m 125.079188,1.37718 c -2.87952,2.93511 -2.49295,7.14966 0.77566,9.2971 3.12491,-3.32555 2.82103,-7.22693 -0.77566,-9.2971 z m -115.688548,0.293 c -3.5013,0.0145 -6.19259,2.88197 -5.74642,6.38514 4.0373,0.39858 7.15851,-2.56769 6.65283,-6.32571 -0.30694,-0.0411 -0.60969,-0.0607 -0.90641,-0.0594 z m 146.601908,0.73329 c -1.17285,-0.0157 -2.39333,0.44885 -3.62821,1.40818 1.22014,3.75938 6.20518,5.00687 8.93693,2.60863 -1.53195,-2.63008 -3.35398,-3.99071 -5.30872,-4.01681 z m -39.06584,3.22358 c -1.8669,0.0276 -3.63995,1.05523 -4.778,3.04219 2.92019,2.79818 6.92185,2.33076 9.30383,-1.02733 -1.36806,-1.37358 -2.97896,-2.03769 -4.52583,-2.01486 z m 14.7159,0.0915 c -0.42476,-0.003 -0.86753,0.0371 -1.32602,0.12403 -0.33756,3.97901 2.28674,6.69044 6.43114,6.73654 0.59526,-3.94708 -1.6463,-6.83683 -5.10512,-6.86057 z m -38.07881,2.06396 c -0.83785,-0.009 -1.70189,0.23934 -2.59157,0.74569 -0.32266,0.18438 -0.67885,0.87066 -0.5731,1.15807 1.19573,3.23878 5.53638,4.54589 8.63824,2.53266 -0.49484,-0.74835 -0.91761,-1.56871 -1.50327,-2.24792 -1.24979,-1.44299 -2.57388,-2.17345 -3.9703,-2.1885 z m 12.42766,1.39888 c -0.39154,0.003 -0.73016,0.31298 -1.10536,0.8506 -1.88579,2.70327 -1.47775,5.55814 1.47227,8.55968 0.65209,-1.07643 1.3284,-1.967 1.7663,-2.96209 0.99509,-2.25996 0.50595,-4.29736 -1.08159,-5.86321 -0.41044,-0.40451 -0.74708,-0.58753 -1.05162,-0.58498 z m -73.353658,0.45062 c -0.24945,0.12337 -0.50037,0.2456 -0.74982,0.36897 -0.37689,0.43112 -0.74179,0.87023 -1.13223,1.28778 -1.54822,1.66481 -1.99955,4.91437 -0.11783,7.24348 0.50433,-0.36333 1.04273,-0.69555 1.51723,-1.10226 2.04305,-1.75157 2.71522,-4.45094 1.63607,-6.84919 -0.18302,-0.40671 -0.75891,-0.63697 -1.15342,-0.94878 z m -16.83515,0.44907 c -1.54143,0.0138 -3.07191,0.71134 -4.38991,2.09289 2.33589,3.17371 5.96121,3.38814 9.38031,0.49506 -1.48221,-1.74076 -3.24344,-2.60359 -4.9904,-2.58795 z m 21.71134,3.21944 c -2.6599,3.07068 -1.81374,7.59041 1.65416,9.21184 2.40096,-3.47332 1.85712,-6.61837 -1.65416,-9.21184 z m -12.79508,0.0202 c -4.07119,0.2725 -6.30654,3.26092 -5.5609,7.43108 4.02374,-0.21962 6.33501,-3.30837 5.5609,-7.43108 z m 105.519138,0.20206 c -1.18965,-0.002 -2.44276,0.42058 -3.6866,1.28829 2.07288,3.80683 5.34307,4.76397 9.03872,2.64635 -1.31143,-2.57944 -3.23144,-3.93119 -5.35212,-3.93464 z m -15.5205,0.38189 c -0.37321,0.001 -0.61752,0.25394 -0.82838,0.7922 -1.30826,3.34589 0.11541,6.64699 3.68092,8.15454 0.2969,-1.1266 0.69546,-2.21649 0.85679,-3.34037 0.35926,-2.49314 -0.76329,-4.35028 -3.00292,-5.40638 -0.28008,-0.13235 -0.51093,-0.2007 -0.70641,-0.19999 z m 8.10338,1.67638 c -0.41966,0.008 -0.68794,0.27488 -0.86765,0.99374 -0.82563,3.30386 0.79823,6.10992 4.56303,7.46156 0.12879,-0.33486 0.25498,-0.59619 0.33228,-0.86868 1.00187,-3.53298 -0.2551,-6.35961 -3.23494,-7.41299 -0.31178,-0.11045 -0.5729,-0.17771 -0.79272,-0.17363 z m -89.401258,5.40794 c -2.57585,3.21032 -1.83791,7.19751 1.61644,9.20667 2.57448,-3.20354 1.95992,-6.81926 -1.61644,-9.20667 z m -5.26325,3.58738 c -3.02896,-0.0252 -5.20966,1.83209 -5.85184,5.1418 3.70786,1.42349 7.73022,-1.07924 7.84139,-4.87929 -0.69555,-0.17126 -1.36089,-0.25729 -1.98955,-0.26251 z" />
  <text
     xml:space="preserve"
     transform="scale(0.26458333)"
     id="text23745"
     style="font-style:normal;font-weight:normal;font-size:40px;line-height:1.25;font-family:sans-serif;white-space:pre;shape-inside:url(#rect23747);fill:#000000;fill-opacity:1;stroke:none" />
</svg>
